<svg version="1.2" xmlns="http://www.w3.org/2000/svg" viewBox="0 0 2689 298" width="2689" height="298">
	<title>LifeIndoor_logo_RGB_HR</title>
	<style>
		.s0 { fill: #ff9900 } 
		.s1 { fill: #006599 } 
	</style>
	<g id="Background">
		<path id="Path 0" class="s0" d="m514 60c-4.7 0.4-11.2 1.3-14.5 1.9-3.3 0.7-8.9 2.2-12.5 3.3-3.6 1.2-10.1 3.7-14.5 5.8-4.4 2-12.1 6.3-17 9.5-4.9 3.1-12.6 8.5-17 11.8-4.4 3.4-8.5 6.6-9.1 7.1-0.6 0.6-3.5 3.1-6.5 5.6-2.9 2.5-8 7-11.3 10-3.3 3-10.7 10-16.6 15.6-5.8 5.6-12.1 11.4-14 13.1-1.9 1.6-5.5 4.3-8 6-2.5 1.7-8.8 5.3-14 8.1-5.2 2.8-14 6.7-19.5 8.7-5.5 2-15.9 5.2-23 7-7.1 1.9-17.7 4.1-23.5 4.9-9 1.4-25.9 1.6-121.5 1.6h-111c-14 25.1-20 36-22.4 40.5-2.4 4.4-11.9 21.6-21.2 38.3-9.3 16.6-16.9 30.6-16.9 31.2 0 0.7 41.1 1 121.3 1 72.5 0 125-0.4 130.7-1 5.2-0.6 13.3-1.7 18-2.5 4.7-0.8 12.6-2.6 17.5-4 5-1.4 13.5-4.4 19-6.6 5.5-2.2 15.2-6.9 21.5-10.6 6.3-3.6 16-10 21.4-14.2 5.5-4.2 14.4-11.9 19.9-17.1 5.5-5.2 14.6-14.9 20.1-21.5 5.6-6.6 13.6-16.5 17.8-22 4.2-5.5 10.9-14.3 14.9-19.6 4.1-5.3 12.2-15.1 18.1-21.7 5.8-6.7 14.6-15.6 19.5-19.8 4.8-4.2 11.9-9.9 15.8-12.7 3.9-2.7 11.1-6.9 16-9.3 4.9-2.3 11.7-5 15-5.9 4.8-1.4 11.7-1.8 34.8-2.1l28.7-0.4v-41c-36.8 0.2-51.3 0.6-56 1z"/>
		<path id="Path 1" fill-rule="evenodd" class="s1" d="m829 0h83v59h-83zm236 0v51.5l-10.7 0.8c-7.4 0.5-12.1 1.4-14.8 2.7-2.2 1-4.9 3.4-6 5.2-1.5 2.6-2 5.5-2.5 23.8h34v49h-34l-0.5 159.5-82.5 0.5v-160h-28l0.5-48.5 27.5-0.5v-6c0-3.3 0.5-10.4 1.1-15.8 0.6-5.3 2-13.1 3-17.2 1.1-4.1 3.2-10.2 4.8-13.5 1.5-3.3 4.7-8.4 6.9-11.3 2.3-2.8 7-7 10.4-9.2 3.5-2.2 9.2-5 12.8-6.2 3.6-1.1 9.6-2.7 13.5-3.4 4.5-0.8 17.4-1.3 64.5-1.4zm883 7h83v286l-74.5-0.5-0.5-25.5-9.3 9.2c-5.1 5.1-11.7 10.8-14.7 12.5-3 1.8-8.9 4.5-13 6-7.2 2.7-8.2 2.8-26.5 2.7-17.8 0-19.6-0.2-28-2.8-5-1.5-12.3-4.4-16.4-6.4-4.1-2-10.4-6.2-14-9.2-3.6-3-9-8.5-12-12.1-3.1-3.7-7.5-10.2-9.8-14.5-2.3-4.4-5.5-12-7.2-16.9-1.6-4.9-3.7-13.3-4.7-18.5-1.1-6.3-1.7-14.8-1.6-25 0-9.3 0.6-19.3 1.5-25 0.9-5.2 2.8-13.6 4.2-18.5 1.5-4.9 4.7-13.3 7.1-18.5 2.5-5.2 6.5-12.2 8.8-15.5 2.4-3.3 7-8.7 10.2-12 3.3-3.3 9.1-8.1 12.9-10.6 3.9-2.6 8.8-5.5 11-6.4 2.2-1 6.7-2.6 10-3.7 4.3-1.4 9.9-2.1 20-2.5 10.9-0.4 15.9-0.2 22.5 1.2 4.7 0.9 11 2.7 14 3.9 3 1.2 7.7 3.7 10.5 5.6 2.7 1.9 7.6 5.9 16.6 14.5zm-50 141.5c-2 1.3-4.8 4.1-6.2 6.2-1.5 2.1-3.7 6-4.9 8.8-1.2 2.7-2.8 7.9-3.5 11.5-0.8 3.6-1.4 11-1.4 16.5 0 5.5 0.5 12.9 1.1 16.5 0.6 3.6 2.3 9.2 3.8 12.5 1.5 3.5 4.6 7.8 7.1 10.2 3 2.9 6.3 4.8 10 5.9 3.8 1.2 7.6 1.5 12.5 1.2 4.5-0.3 8.9-1.3 12.5-3 3-1.4 6.9-3.9 8.7-5.7 1.8-1.7 4.5-5.2 6-7.9 1.5-2.6 3.5-7.6 4.5-11.2 1-3.6 2-10.3 2.4-15 0.4-5.9 0.1-11.4-1.1-18-0.9-5.2-2.9-12.2-4.5-15.5-1.6-3.4-4.7-7.7-7.2-9.9-2.4-2.2-6.4-4.8-8.8-5.9-2.5-1.1-7.5-2.1-11-2.3-4.3-0.3-8.3 0.2-11.5 1.2-2.8 0.9-6.6 2.7-8.5 3.9zm-713-69c17.8 0.2 20.5 0.5 31 3.2 6.3 1.7 15.7 5 21 7.4 5.2 2.5 12.2 6.3 15.5 8.4 3.3 2.2 9.5 7.4 13.9 11.5 4.3 4.1 10.1 10.4 12.8 14 2.7 3.6 7.4 11.4 10.3 17.5 3 6.1 6.6 15.1 8 20 1.4 4.9 3.2 13.1 3.9 18 0.8 4.9 1.6 13.3 2.1 28l-157.5 0.5 0.6 4.2c0.3 2.4 1.3 6.3 2.1 8.8 0.9 2.5 2.5 6.1 3.7 8 1.2 1.9 4 5.2 6.1 7.3 2.2 2.1 6.9 5.3 10.4 7 6.1 3 7.2 3.2 17.5 3.2 10.8 0 11.2-0.1 17.6-3.6 4.8-2.6 7.4-4.9 13.5-13.8l78.5-0.1v2.2c-0.1 1.3-1.5 5.7-3.3 9.8-1.8 4.1-5.3 10.4-7.9 14-2.5 3.6-7.9 9.6-12 13.5-4 3.9-10.5 8.9-14.3 11.2-3.9 2.3-11.1 5.9-16 7.9-5 2-13.5 4.6-19 5.9-5.5 1.3-13.9 2.9-18.5 3.6-5.5 0.7-15.6 1-28 0.6-16.1-0.4-21.4-0.9-30-3-5.8-1.3-14.8-4.2-20-6.3-5.3-2.2-13.1-6.1-17.5-8.9-4.4-2.7-11.9-8.8-16.7-13.5-4.7-4.7-10.6-11.7-13.1-15.5-2.5-3.8-5.9-10.2-7.6-14-1.6-3.8-3.9-10.6-5.1-15-1.1-4.4-2.5-11.4-3-15.5-0.5-4.1-1-11.1-1-15.5 0-4.4 0.5-11.4 1-15.5 0.5-4.1 1.9-11.1 3-15.5 1.2-4.4 3.5-11.2 5.1-15 1.6-3.8 5.1-10.4 7.6-14.5 2.6-4.1 8.5-11.5 13.2-16.3 4.7-4.9 11.7-11 15.6-13.6 3.8-2.7 10.1-6.4 14-8.3 3.8-2 10.3-4.7 14.5-6 4.1-1.4 10.8-3.3 15-4.2 4.1-0.8 8.8-1.7 10.5-2 1.6-0.2 11.7-0.3 22.5-0.1zm-23 55.7c-2.5 1.4-6 4.3-7.8 6.4-1.8 2.1-4.1 6.1-5.1 8.9-1 2.7-2.1 7.1-2.5 9.7l-0.6 4.8h74.5c-1.3-7.4-2.5-11.4-3.6-13.8-1.1-2.3-4.1-6.5-6.7-9.3-2.6-2.8-7.4-6.5-10.7-8.2-5.2-2.6-7.3-3.1-15-3.3-5.2-0.2-11 0.2-13.5 0.9-2.5 0.7-6.6 2.5-9 3.9zm998.5-56.1c10.6-0.1 20.4 0.5 26 1.4 4.9 0.8 13 2.6 18 4 4.9 1.4 13.2 4.6 18.5 7.1 5.2 2.5 12.2 6.5 15.5 8.8 3.3 2.4 8.8 7.2 12.4 10.7 3.5 3.5 8.3 9.1 10.6 12.4 2.4 3.3 6.1 9.8 8.3 14.5 2.2 4.7 5.3 13 6.8 18.5 2.5 9.3 2.7 11.4 2.8 30 0 13-0.4 22.1-1.2 26-0.8 3.3-2.7 10.3-4.3 15.5-1.6 5.2-5 13.1-7.5 17.5-2.5 4.4-7.1 11.1-10.2 15-3.2 3.8-9.3 9.8-13.7 13.2-4.4 3.5-12.5 8.6-18 11.3-5.5 2.7-13.9 6-18.5 7.4-4.7 1.3-12.8 3.1-18 4-6.2 1-15.4 1.6-26 1.6-9.7 0-20.3-0.6-25.5-1.5-5-0.8-13.1-2.6-18-4-5-1.5-13.3-4.7-18.5-7.1-5.3-2.5-12.2-6.5-15.5-8.9-3.3-2.3-9.1-7.4-12.9-11.1-3.7-3.8-8.9-10-11.4-13.9-2.6-3.8-6.4-11.1-8.4-16-2-4.9-4.7-13.7-5.9-19.5-1.6-7.9-2.2-14-2.2-25 0-9.4 0.6-17.9 1.7-24 0.9-5.2 3-13.6 4.6-18.5 1.7-4.9 5-12.6 7.5-17 2.5-4.4 7.2-11.1 10.3-15 3.1-3.8 9.3-9.8 13.7-13.2 4.4-3.5 12.5-8.6 18-11.3 5.5-2.7 14-6.1 19-7.5 4.9-1.4 12.6-3.2 17-3.9 4.4-0.8 15.6-1.4 25-1.5zm-18.8 63.9c-3.2 2.9-6.1 7-8.3 11.5-1.8 3.8-4.1 10.5-4.9 14.7-0.8 4.3-1.5 12.6-1.5 18.5 0 6 0.5 13.7 1 17.3 0.6 3.6 2.2 9.7 3.5 13.5 1.4 3.8 4.2 9.2 6.3 12 2.3 3 6 6.2 9.3 8 4.9 2.7 6.2 3 14.9 3 8.7 0 9.9-0.3 14.8-3 3-1.7 6.7-4.6 8.2-6.5 1.5-1.9 3.7-5.3 4.8-7.5 1.2-2.2 3.1-7.6 4.3-12 1.8-6.6 2.2-10.9 2.2-24 0.1-12.7-0.3-17.4-1.7-22.5-1-3.6-2.8-8.8-4-11.5-1.2-2.8-4.2-7.2-6.7-9.9-2.4-2.7-6.7-6-9.4-7.2-3.7-1.8-6.7-2.4-11.5-2.3-3.6 0-8.8 0.8-11.5 1.7-2.8 1-7.1 3.6-9.8 6.2zm263.5-63.9c12.5-0.1 19.6 0.4 28 1.9 6.2 1 15.1 3.2 19.8 4.8 4.6 1.7 10.7 4 13.5 5.2 2.7 1.2 8.8 4.7 13.5 7.7 4.6 3.1 11.6 8.8 15.5 12.7 3.8 3.9 8.7 9.8 10.9 13.1 2.2 3.3 5.2 8.5 6.7 11.5 1.6 3 4 8.9 5.4 13 1.4 4.1 3.2 11.3 4 16 0.8 4.8 1.5 14.6 1.5 22.5 0 8-0.7 17.8-1.5 22.7-0.9 4.9-2.7 12.5-4.1 17-1.4 4.6-4.5 11.9-6.8 16.3-2.3 4.4-6.3 10.7-8.8 14-2.5 3.3-7.2 8.4-10.4 11.4-3.3 3-8.6 7.2-11.9 9.4-3.3 2.3-9.6 5.8-14 7.8-4.4 2.1-12.1 4.9-17 6.4-5 1.4-13.1 3.2-18 4-5.3 0.9-15.9 1.5-25.5 1.5-10.7 0-19.9-0.6-26-1.6-5.3-0.9-13.4-2.7-18-4.1-4.7-1.3-12.1-4.1-16.5-6.2-4.4-2-11-5.7-14.5-8.1-3.6-2.4-9.6-7.3-13.4-10.9-3.8-3.6-8.8-9.3-11.2-12.6-2.3-3.3-6.1-9.8-8.4-14.5-2.2-4.7-5.2-13-6.7-18.5-2.2-8.3-2.7-12.8-3.1-27-0.3-12.6 0-19.3 1.1-26 0.9-4.9 2.8-12.8 4.2-17.5 1.5-4.7 4.2-11.7 6.2-15.5 1.9-3.8 5.4-9.7 7.7-13 2.4-3.3 7.2-8.9 10.7-12.4 3.5-3.5 9.7-8.6 13.9-11.4 4.1-2.8 10.8-6.6 15-8.5 4.1-1.8 11.3-4.5 16-5.8 4.6-1.4 12.3-3.1 17-3.9 4.6-0.7 16-1.3 25.2-1.4zm-20.5 64.7c-2.1 2-5.2 6.4-6.8 9.7-1.6 3.3-3.7 8.9-4.7 12.5-1.3 5-1.7 10.2-1.7 22.5 0 13.6 0.4 17.2 2.3 24 1.3 4.4 3.5 10.2 5 12.9 1.5 2.7 4.9 6.9 7.7 9.3 2.9 2.5 7.1 5.1 10 6 3.4 1.1 7.2 1.4 12 1.1 4.8-0.3 8.6-1.3 12.2-3.1 2.9-1.5 6.8-4.6 8.6-7 1.9-2.3 4.1-5.7 5-7.5 0.9-1.7 2.7-6.7 3.9-11 1.9-6.6 2.2-10.2 2.2-24.7 0.1-15.1-0.2-17.8-2.3-24.5-1.3-4.1-3.4-9.5-4.6-12-1.3-2.5-4.1-6.3-6.2-8.5-2.2-2.2-5.7-4.9-7.9-6-2.6-1.3-6.5-2-11.4-2.2-6.3-0.3-8.5 0.1-13.5 2.2-3.3 1.4-7.7 4.2-9.8 6.3zm291-64.7c5.7-0.1 10.9 0.1 11.8 0.4 1.3 0.4 1.5 6 1.5 42 0 39.1-0.1 41.5-1.8 40.9-0.9-0.3-6.7-0.9-12.7-1.2-7-0.3-13.4 0-17.5 0.8-3.6 0.6-8.8 2.3-11.5 3.7-2.8 1.4-7 4.4-9.4 6.7-2.4 2.2-5.6 6.7-7.2 9.8-1.6 3.2-3.7 8.6-4.6 12-1.4 5.3-1.8 13.8-2.8 98.3l-82.5 0.5v-209h75l0.1 41.5 3.2-7c1.8-3.8 5.1-9.7 7.3-13 2.3-3.3 6.8-8.5 10-11.5 3.3-3 8.6-6.8 11.9-8.5 3.3-1.6 8.9-3.7 12.5-4.7 4-1 10.4-1.7 16.7-1.7z"/>
		<path id="Path 2" class="s0" d="m505 7.7c-1.9 0.2-7.3 1.1-12 1.9-4.7 0.8-12.1 2.6-16.5 3.8-4.4 1.3-12.1 3.9-17 5.8-4.9 2-19.4 8.5-32 14.6-12.6 6.1-26.6 12.2-31 13.5-4.4 1.4-13.2 3.7-19.5 5.1-6.3 1.4-17.1 3.3-24 4.3-11 1.5-25.5 1.8-118.3 2.2l-105.9 0.6c-13.5 24-21.5 38.2-26.5 47-5 8.8-13.4 23.7-18.7 33-5.2 9.3-9.3 17.3-9.1 17.8 0.3 0.4 40 0.7 88.3 0.7 48.2 0 94-0.5 101.7-1 7.7-0.5 18.1-1.5 23-2.1 4.9-0.6 14.6-2.1 21.5-3.5 6.9-1.3 16.8-3.7 22-5.4 5.2-1.8 13.8-5.2 19-7.6 5.2-2.5 13.8-7.3 19-10.8 5.2-3.4 12.9-9.1 17-12.7 4.1-3.5 12-10.7 17.5-16 5.5-5.2 13.6-12.2 18-15.5 4.4-3.2 11.6-8 16-10.6 4.4-2.6 12.7-6.8 18.5-9.3 5.8-2.6 15.7-6.1 22-8 6.3-1.8 15.6-4.1 20.5-5.1 7-1.3 15.9-1.8 40.3-2l31.2-0.4v-41c-47.7 0.2-63.1 0.5-65 0.7z"/>
		<path id="Path 3" class="s1" d="m591 27.5v20.5h94v-41h-94zm846.2 122.3l0.3 142.7 93.5 0.5v-286h-94zm-846.2-70.3l-0.1 20.6h94l-0.5-40.5-93.4-0.6zm1094 1.6c-4.2 1.1-11.1 3.7-15.5 5.9-4.4 2.1-11.2 6.5-15 9.8-3.9 3.2-9.5 8.8-12.5 12.4l-5.5 6.6-0.5-31.8-75.5 0.5v208l82.5 0.5c0-81.7 0.4-109.7 0.9-115 0.5-5.2 1.3-11.3 1.9-13.5 0.6-2.2 2.5-6.2 4.4-8.9 2.4-3.8 4.7-5.7 9.3-8 5.3-2.7 6.9-3 15-3 8 0 9.5 0.3 14.4 3 3.7 2 6.3 4.4 8.3 7.4 1.5 2.5 3.3 6.1 4 8 0.9 2.5 1.3 21.7 1.7 66.5l0.6 63h83c0-123-0.4-140.9-1.4-147.5-0.7-4.6-2.7-12.5-4.3-17.5-1.6-4.9-4.2-11.2-5.8-14-1.6-2.7-4.8-7.3-7.2-10.2-2.4-2.9-6.8-7.1-9.9-9.5-3-2.3-8.7-5.7-12.5-7.5-3.8-1.8-11.2-4.2-16.4-5.2-6.9-1.5-13.3-2-23-2-10 0-15.5 0.6-21 2zm-855.6 4.2c-0.2 0.7-0.3 47.6-0.2 104.2l0.3 103 82.5 0.5v-209c-73 0-82.2 0.3-82.6 1.3zm-238.4 117.2v90.5l221.5-0.5 0.5-67.5h-128v-113h-94z"/>
	</g>
</svg>