<svg version="1.2" xmlns="http://www.w3.org/2000/svg" viewBox="0 0 795 281" width="795" height="281">
	<title>image</title>
	<style>
		.s0 { fill: #9AE945 } 
		.s1 { fill: #138adb } 
	</style>
	<g id="Background">
		<path id="green-stuff" class="s0" d="m257.7 55.3c-0.2 0.6-2.8 1.8-5.8 2.5-3 0.7-11.7 4.2-19.4 7.7-7.7 3.5-17.4 7.6-21.5 9-4.1 1.4-11.3 3.2-16 4-6.8 1.2-18.9 1.5-59.5 1.5h-51c-20.6 35.3-26.3 45.7-25.9 46 0.3 0.3 24.3-0.1 53.2-0.7 40.9-1 54.4-1.6 60.2-2.9 4.1-0.9 10-2.6 13-3.8 3-1.2 8.7-4.3 12.5-6.9 3.8-2.5 12.2-9.2 18.5-14.8 6.3-5.7 14.2-12 17.5-14.1 3.3-2.1 8.5-4.8 11.5-5.9 3-1.1 9.1-2.9 13.5-4 6.4-1.5 11.7-1.9 27-1.9 10.4 0 20.4-0.2 22-0.5 2.5-0.5 3.6-1.7 6.8-8.1 2-4 3.7-7.6 3.7-7.9 0-0.3-13.5-0.5-29.9-0.5-23 0-30 0.3-30.4 1.3zm694.5 104.3c1.2 1.3 1.5 5.4 1.7 22.5 0.1 17.8-0.1 21.1-1.5 22.4-0.8 0.8-2.2 1.5-3 1.5-0.8 0-1.6 0.4-1.9 1-0.3 0.6 2.4 1 7.3 1 6.9-0.1 7.5-0.2 5.7-1.5-1.1-0.8-2.6-1.9-3.3-2.5-0.7-0.6-1.2-3.3-1.2-6.7 0-3.7 0.6-6.3 1.5-7.3 1.3-1.3 1.3-2 0-6-0.9-2.5-1.5-7-1.5-10 0-3.2 0.8-7.2 1.9-9.5 1.8-3.9 1.8-4 0-5.2-1.1-0.7-3.1-1.3-4.5-1.3-2.4 0-2.5 0.2-1.2 1.6zm-691.2-73.5c-4.1 1.1-10.9 3.8-15 5.9-5.3 2.8-12.5 8.4-25 19.5-9.6 8.6-20.2 17.4-23.5 19.6-3.3 2.2-8.9 4.9-12.5 6-3.6 1.2-11.2 2.5-17 3.1-6 0.5-33.1 0.8-63.4 0.6l-53-0.3-30.6 51c108.3 0.5 129.3 0.2 133.5-0.5 3.3-0.7 9.2-2.5 13-4.2 3.9-1.6 10.8-5.5 15.5-8.6 4.7-3.1 12.1-9.3 16.6-13.7 4.4-4.4 14.1-15.7 21.6-25 7.5-9.3 17.8-21.1 22.9-26.2 5.2-5 11.2-10 13.4-11 3.2-1.4 7.5-1.9 21.9-2.3l17.9-0.5 6.7-15.5c-32.2 0.1-36.9 0.5-43 2.1zm547 58.1c-2.9 1.5-5.5 3.9-7.3 6.8-2.3 3.7-2.9 6-3.4 13-0.3 4.8-0.1 10.2 0.5 12.5 0.6 2.2 2.2 5.6 3.5 7.5 1.2 1.9 3.8 4.5 5.7 5.8 1.9 1.2 4.6 2.2 6 2.2l2.5-0.1c-3.9-1.6-6.5-3.4-8.3-5.2-2-1.9-3.9-5.2-4.8-8.2-0.8-2.7-1.4-7.9-1.4-11.5 0-3.6 0.6-8.7 1.4-11.5 1-3.1 2.8-6.3 5.1-8.5 3.4-3.3 4.1-3.5 10-3.5 5.7 0 6.7 0.3 9.5 3 1.8 1.7 3.8 4.3 4.5 6l1.3 3c0.2-9.5 0-10.1-2.5-11.4-1.5-0.7-6.2-1.5-10.3-1.8-6.5-0.4-8.1-0.1-12 1.9zm50.5 14.2c-1.8 1.3-1.7 1.4 2 0.9 3.5-0.5 4.3-0.2 6.3 2.3l2.3 2.9c-0.1-7.5-0.1-7.5-4.4-7.5-2.3 0-5.1 0.6-6.2 1.4zm22.2 0.6c-1.5 1.1-3.4 3.3-4.2 5-0.9 1.9-1.5 5.8-1.5 10.5 0 5.3 0.5 8.6 1.9 11.3 1 2 3 4.3 4.5 5 1.4 0.6 3.1 1.2 3.6 1.2 0.6 0-0.2-1.1-1.7-2.4-1.6-1.3-3.4-4.1-4-6.2-0.7-2.1-1.3-5.9-1.3-8.4 0-2.5 0.5-6.3 1.1-8.5 0.6-2.2 1.8-4.8 2.7-5.9 1-1 2.6-2.2 3.7-2.7 2-0.8 2-0.8-0.1-0.8-1.2-0.1-3.3 0.8-4.7 1.9zm11.3-0.7c1.4 0.7 3.4 3 4.5 5.2 1.4 2.8 2 6.1 2 11 0 5-0.6 8.1-2 11-1.1 2.2-3.1 4.5-4.5 5.2-1.8 0.9-2 1.3-0.7 1.3 0.9 0 2.9-0.6 4.3-1.2 1.4-0.7 3.4-3.1 4.4-5.3 1.4-2.7 2-6.2 2-10.7 0-4.8-0.6-8-2-10.8-1.1-2.2-3-4.7-4.2-5.5-1.3-0.8-3.2-1.5-4.3-1.5-1.7 0-1.7 0.2 0.5 1.3zm70-0.2c-1.1 0.8-0.8 0.9 1.5 0.4 1.7-0.3 4.2-0.1 5.8 0.5 1.7 0.6 3.4 2.5 4.7 5.3 1.2 2.6 2 6.3 2 9.7 0 3-0.6 7.3-1.3 9.4-0.6 2.1-2.3 4.8-3.7 5.8-1.6 1.3-3.6 1.8-5.6 1.6-1.8-0.1-3 0-2.8 0.5 0.2 0.4 2.5 0.7 5.2 0.7 3.6 0 5.2-0.5 6.8-2.2 1.2-1.3 2.7-3.3 3.3-4.5 0.6-1.3 1.1-6.1 1.1-10.8 0-5.6-0.5-9.5-1.5-11.5-0.8-1.7-2.5-3.7-3.7-4.5-1.3-0.8-4.1-1.5-6.3-1.5-2.2 0-4.7 0.5-5.5 1.1zm-113.8 1.5c1.2 1.2 1.5 4.5 1.7 15 0.1 11-0.2 13.7-1.5 14.9-1.4 1.3-1.1 1.5 2.5 1.5 3.6 0 3.9-0.2 2.6-1.5-1.1-1.1-1.5-3.7-1.5-9.2 0-4.3 0.7-10.2 1.5-13 1.4-5 1.4-5.4-0.5-7.3-1.1-1.1-3-2-4.1-2-2 0-2 0.2-0.7 1.6zm64 0c1.1 1.2 1.5 4.3 1.7 12.7 0 6.2 0.6 12.8 1.1 14.7 0.6 1.9 1.6 3.8 2.3 4.2 0.6 0.4 3 0.8 5.2 0.8 2.2 0 4.7-0.5 5.5-1.1 1.1-0.8 0.7-0.9-1.5-0.4-2.3 0.5-3.7 0.1-5.9-1.7-2.3-1.9-3-3.4-3.7-8.3-0.4-3.3-0.8-9.7-0.8-14.2-0.1-8.3-0.1-8.3-2.7-8.3-2.4 0-2.5 0.2-1.2 1.6zm20 0c1.1 1.1 1.6 4.1 1.7 10.7 0.1 6-0.4 10.8-1.4 13.7-1.4 4.2-1.3 4.6 0.3 5.7 0.9 0.7 2.7 1.3 4 1.3 2 0 2-0.2 0.7-1.5-1.2-1.2-1.5-4.5-1.5-16.5v-15c-5 0-5.1 0.2-3.8 1.6zm-105.9 12.3c2 0.3 4.2 1.3 4.7 2.1 0.5 0.8 1 3.5 1 6 0.1 2.9-0.6 5.3-1.7 6.7-1 1.3-3.6 2.9-5.8 3.7-3.6 1.3-3.7 1.5-1.2 1.5 1.5 0.1 4.5-0.6 6.7-1.4l4-1.5v-18c-10.9 0.2-11.1 0.3-7.7 0.9z"/>
		<path id="life-media" fill-rule="evenodd" class="s1" d="m376 124c4.1 0 8.9 0.2 13.5 1.2l-2 12.8-3.5-0.6c-2.5-0.5-4-0.2-5.3 1-0.9 0.9-1.7 2.5-1.7 3.6 0 1.7 0.7 2 9 2v14h-9v35h-19v-35h-7v-14h3.3c3.1 0 3.2-0.1 3.8-5.2 0.4-2.9 1.4-6.8 2.3-8.6 0.9-1.7 3.1-3.9 4.9-4.7 1.8-0.8 6.4-1.4 10.7-1.5zm-110 1h21v51h32v17h-53zm61 0h19v13h-19zm155 0h27.5l4.4 18.2c2.4 10.1 4.6 18.7 4.9 19.3 0.4 0.6 2.7-7.6 9.7-37l27.1-0.6 0.4 68.1h-17l-0.2-47.5-5.8 23.5c-3.3 12.9-5.9 23.6-6 23.8 0 0.1-3.6 0.2-16 0.2l-11.9-48.5-0.1 48.5h-17zm177 0h20v68h-9c-8.9 0-9 0-9-5l-3.7 2.8c-3.2 2.4-4.5 2.7-11.2 2.7-6.3 0-8.2-0.4-10.9-2.2-1.7-1.3-4.4-4.7-6-7.5-2.4-4.8-2.7-6.3-2.7-15.8 0-9 0.3-11.1 2.2-14.7 1.3-2.4 4-5.5 6-7 2.9-2.3 4.9-2.9 10.2-3.1 5.2-0.3 7.4 0.1 14.1 3.8zm-12.5 35.1c-0.8 1.6-1.5 5.5-1.5 8.7 0 3.4 0.6 6.6 1.5 8 0.8 1.2 2.4 2.6 3.5 3.2 1.4 0.7 2.8 0.6 4.5-0.2 1.4-0.7 3.1-2.6 3.7-4.3 0.7-1.7 1.2-4.8 1.2-7 0.1-2.2-0.5-5.3-1.1-7-0.7-1.7-2.4-3.6-3.8-4.2-1.4-0.7-2.8-1.3-3.3-1.2-0.4 0-1.3 0.3-1.9 0.6-0.7 0.3-2 1.8-2.8 3.4zm42.5-35.1h19v13h-19zm-274 18c4.1 0 9.8 0.6 12.5 1.5 3.2 0.9 6.3 2.8 8.7 5.2 2 2.1 4.4 5.8 5.3 8.3 0.8 2.5 1.5 6.6 1.5 14h-36l0.6 2.3c0.4 1.2 1.4 3 2.3 4 0.9 0.9 2.8 2 4.4 2.2 1.6 0.3 4.1-0.3 6.5-1.6 3.2-1.8 4.7-2 11.2-1.4 4.1 0.4 8.2 1 9 1.5 1.3 0.7 1 1.4-1.5 4.8-1.6 2.2-4.4 4.9-6 6.1-1.6 1.1-4.6 2.5-6.5 3.1-1.9 0.5-7.1 1-11.5 1-4.7 0-9.8-0.6-12.5-1.5-2.5-0.9-5.8-2.8-7.4-4.3-1.6-1.5-3.9-4.9-5.2-7.7-1.8-3.7-2.4-6.8-2.4-12 0-5.7 0.5-8 2.7-12.4 1.6-3 4.4-6.6 6.3-8 1.9-1.4 5-3.1 7-3.8 1.9-0.7 6.9-1.2 11-1.3zm-6.8 16.9c-1.2 2.1-1 2.1 7.3 2.1 4.7 0 8.5-0.3 8.5-0.7 0.1-0.5-0.7-1.6-1.7-2.5-1-1-3.4-2-5.3-2.3-1.9-0.2-4.4 0-5.5 0.5-1.2 0.5-2.6 1.8-3.3 2.9zm183.8-16.9c4.1 0 9.7 0.6 12.5 1.5 3.2 0.9 6.3 2.8 8.7 5.2 2 2.1 4.4 5.8 5.3 8.3 0.8 2.5 1.5 6.6 1.5 14h-36l0.6 2.3c0.4 1.2 1.4 3 2.3 4 0.9 0.9 2.8 2 4.3 2.2 1.7 0.3 4.2-0.3 6.5-1.6 3.3-1.8 4.8-2 11.3-1.4 4.1 0.4 8.2 1 9 1.5 1.3 0.7 1 1.4-1.5 4.8-1.6 2.2-4.4 4.9-6 6.1-1.6 1.1-4.6 2.5-6.5 3.1-1.9 0.5-7.1 1-11.5 1-4.7 0-9.8-0.6-12.5-1.5-2.5-0.9-5.8-2.8-7.4-4.3-1.6-1.5-3.9-4.9-5.2-7.7-1.8-3.7-2.4-6.8-2.4-12 0-5.7 0.5-8 2.7-12.4 1.6-3 4.4-6.6 6.3-8 1.9-1.4 5-3.1 7-3.8 1.9-0.7 6.9-1.2 11-1.3zm-6.8 16.9c-1.2 2.1-1 2.1 7.3 2.1 4.7 0 8.5-0.3 8.5-0.7 0.1-0.5-0.7-1.6-1.7-2.5-1-1-3.4-2-5.3-2.3-1.9-0.2-4.4 0-5.5 0.5-1.2 0.5-2.6 1.8-3.3 2.9zm161.3-16.6c10.2 0.2 12.5 0.6 15.5 2.4 1.9 1.1 4.4 3.8 5.5 5.9 1.6 3.3 2 6.6 2.5 21.4 0.3 9.6 0.8 18.1 1.2 18.8 0.6 0.9-1.3 1.2-8.2 1.2-8.2 0-9-0.2-9.5-2-0.3-1.1-0.8-2-1.3-2-0.4 0-2.3 1-4.2 2.2-2.6 1.7-5.5 2.3-11.5 2.6-6.4 0.4-8.8 0.1-11.9-1.4-2.2-1.1-4.8-3.2-5.8-4.9-1-1.6-1.8-4.8-1.8-7 0-2.2 0.9-5.4 2-7.2q2-3.3 6.2-4.7c2.4-0.8 8.6-2.4 13.8-3.6 5.2-1.1 10.1-2.4 10.8-2.8 0.9-0.4 1.2-1.6 0.8-2.9-0.3-1.3-1.6-2.6-2.9-2.9-1.2-0.3-3.9-0.1-6 0.5-2.3 0.7-3.9 1.8-4.2 3.1-0.5 1.8-1.1 2-8.3 1.4-4.2-0.3-8.5-0.7-9.5-1-1.2-0.3-1.5-1-1.1-2.6 0.3-1.3 1.4-3.8 2.3-5.7 0.9-1.9 2.7-4.2 4.1-5.1 1.4-1 4.1-2.3 6-2.9 1.9-0.6 8.9-0.9 15.5-0.8zm-9.3 34c-0.7 0.6-1.3 2-1.2 3 0 0.9 1 2.2 2.2 2.8 1.7 0.9 3.2 0.8 5.9 0 2-0.6 4.3-2.2 5.3-3.4 0.9-1.2 1.6-3.2 1.6-4.4 0-1.3-0.6-2.3-1.3-2.2-0.6 0-3.5 0.7-6.2 1.5-2.8 0.8-5.6 2-6.3 2.7zm-410.2-33.3h19v49h-19zm362 0h19v49h-19z"/>
	</g>
</svg>