<svg version="1.2" xmlns="http://www.w3.org/2000/svg" viewBox="0 0 1126 798" width="1126" height="798">
	<title>background-svg</title>
	<style>
		.s0 { fill: #016698 } 
		.s1 { fill: #129b9d } 
		.s2 { fill: #fe9bb1 } 
		.s3 { fill: #dcaf26 } 
		.s4 { fill: #d9d922 } 
		.s5 { fill: #d1232a } 
		.s6 { fill: #7e2354 } 
		.s7 { fill: none } 

		* {filter: opacity(0.6)}
	</style>
	<path id="Layer" class="s0" d="m487.3 357.6c15-0.1 28.9-1.1 42.9-2.8 20.5 5-31.9 6 4.3 11.7-6.8-1.2-13.6-2.2-20.5-3.1-30.5 2.1-37.3 2.6 2.1 10.7l13.7 1c-33.3-2.6 26.9 12.8-1.4 9-17.7-4.9-28.1-6.2-44.7-10.8-11.7-0.8-23.1-2.4-34.4-4.7l54.5 15.3q-9.4-1.1-18.9-2.7c-21.3-7.8 15.7 9.3-34.5-9.2 18.9 8.2 40.3 14.9 61.3 21.3-16-3.9 6.5 5.2-24.4-5.4 15 6.6 29.9 13.6 44.7 20.9-11.8-2.7-23.3-5.9-34.6-9.7 4.3 1.9 7.3 3.7 11.6 5.5-37.9-17.7 17.9 18.3-45.2-16.7 2.3 1.3 4.3 2.6 7.1 4.3-33.5-19.9-10.5-3.7-4.6 2.4-8.6-4.4-38.4-28.1-55.2-40.3 11 6.9 5.9 7.4-34.7-35.1 44.3 43.4 73.3 68.2 103.1 99.6-22.2-20.3-40.2-36.2-48.5-44.9 13.5 16.5 21.9 31 42.3 68.4l-22.1-33.9c-5-5.8-9.7-11.8-14-17.9 10.3 16.8 21.2 33.3 32.5 49.5-8.2-11.2-23.2-32.2-33.4-49.4-17.6-30.8 39.1 79.3 9.2 25.3 1.8 4.1 3.5 8 5.2 11.8-13.9-27.9-10.9-17.1-16.8-27.2q9.1 24.4 18.9 48.6l-1.8-11.2c17.3 47.5-7.1-6.5-7.2-3.4-7.3-16.4-18.9-57.2-23.6-71.9 0.5 2.2-3.4-12.6 0.4 1.8 3.7 15.5 14.8 59.5 21.5 80.6-15-51.3-13.5-44.6-19-65.6 4.6 24.7 6.7 35.7 8.1 40.5-1.9-6.4-4.3-17.3-8.2-39.6 1.6 9.8 3 19.7 4.3 29.6 1.9 43.5-13.7-96-9-79.7 0.4 28 1.7-6.7 1.3 26.6 0.2 8.4-2.9 76.2-3.3 107.6-6.1 18.8 0.8-61.5 0.5-73.8-1.8 21.6-3.3 43.2-4.4 64.9-0.8-28.5 1.9-34.8 2.2-55.3-1.6 18.7-3.3 16.9-4.3 38-4.9 5.7-2.9 0.3-8 7l12.5-61.3c1.3-7.1-5 19.9-7.9 31 0.1 1.2 1-0.7-0.7 7.2-13.6 52.3 5.6-29.9-8 17.7 5.6-19 12.6-45.7 13.1-49.3-9.9 37-11.2 33.6-16.2 48.9 8.7-24.9 0.8-12.7 14.9-51.8-10.7 26.6-10.1 28.4-16.7 48.2 15.5-46.1-2.5-8.4 7.7-34.5-1.6 3.4-2.8 5.9-3.8 8.2 11.6-27.2 13.2-34.8 36-71.4-6.3 10.2-12.4 20.5-18.4 30.9-8.7 13 39.2-64.5 41.2-62.6-29 42 5.3-1.6-28.8 43.9 17.7-23.2 26.8-32.8 56.4-65.6-17.7 22.5-46.6 52.5-54.7 64.6 5.9-6.9 12-13.5 18.3-20l-18.5 20.7c13.8-15.6 15.6-16 26.8-27.8-22.5 24.4-38.7 41-56.3 58.9 6.9-7.2-16.8 13.6 4.3-6.4l-12.1 10.8c46-40.8 8.4-9.4 58.8-48.6-9 7.1-18.1 14.2-27.3 21.1 4.9-3.6 57.7-41 71-48.7 2.6-0.5 9.6-3.2 5.5 0.9-36.3 19.7-40.9 27.8-61 39.2-0.7 0.9 4.3-1.3 32.9-14.3-29.6 13.7-53.1 26.1-55.5 27.4-55.1 28.7 12.6-7.6 5.3-2.7l-26.6 11.5c17.4-9 64.2-25.9 112.3-40.3-33.7 12-42.9 14.1-77.1 25.9-20.2 6.9 2.8-0.2-0.9 1.7-24.9 5.1-39.5 7.7-50.2 10.7 27-6.3-6.9-4.1 56.7-10.2-25.3 2.2-16.4 1.5-28.6 2 13.1-0.7 30-1.6 28.1-1.4 25.8-1.5 49.9 3.4 27 3.6l-18.6-1.5c-10.1-2 97.3 18.2 50.3 16.6-13.4-2.5-50.6-12.8-49.3-11.6 22.4 6.2 69.4 18.9 55.6 18.3l-39.8-12.3c13.3 4.4 26.5 9.1 39.6 14.2 33 9.9 23 1 58.9 15.7-38.2-7.9 35.3 16.6-9.8 6.8-3.5-2.8-32.9-15-48.6-20.9-24.4-5.1-15.2-0.6-7.4 5.9 7.9 5.9 14.4 13.9-9.8 3.6 26.6 19.7 28.6 28.8 50.1 50.6-32.8-25.7-61.7-48.8-87.4-68.9-4.2-3.4 67 58.1 19.3 20.1 42 38.5 21.3 30.2 74.3 89.9-11.4-11.6-4.9 3.5-30.7-33.1 11.8 24.6-50.9-48-50.9-47.4 0.6 2.6 32.2 39.2 30.6 42.2-2.3-2.5-7.2-8.9-9.5-11.4l10 15.7c-11.6-14.2-22.1-32.8-34.7-49.4-11.2-12.9 23 40.4 20.3 47.9l-6.3-12.4-5.3-0.3-1.9-4.2c3.4 8.9 6.5 17.9 9.2 27l-8.9-18.7c1.8 5.6 7 17.3 6.7 20.2l-10.2-23.4c15.9 36.2 17.7 59 14.3 60.4l-4.5-10.6c3.5 17 6.2 34.3 7.9 51.8-12.3-24.9-12.3-59.8-14.9-38.8-4-16.9-8.3-33.8-12.7-50.6 1.4 20.7-6.2-6.2-4.8 11.7 6.9 25.5 9 21.2 12.4 44.3-17.3-57.3-3.1 16.6-6.1 41.6 2.7-1.5 5.1-1.3 1.1-31.5 2.8 0.4 6.3 27 8.6 28.9-0.5-9.9-1.3-19.7-2.3-29.5l9.3 34.5c0.4-9.8 0.3-19.5 0-29.2 10.8 40.3 7.9 3.1 17.7 46.3 0-18.6 13.4 8.4 3.6-32.8 12.6 22.2 4.8 30.7 10.3 33.3 10.6-40.3 28.4-43 57-47.2l9.9 16.1c-9.7-16.3-17.2-29.9-25.2-41.5 23.4 24.4 68 40.8 25.6-6.2 3.1 1.8 9.1 8.9 12.2 12.6-0.7-10.1 43.7 5.6 46.3-10.2-53.4-39.2 46.6 3.7-30.6-44.2l15.4 10.8c-23.6-9-52.9-34.2-72.7-44.3 53.8 23.9 40.3 20.3 90.8 40.4-6.9-1.5-13.7-3.1-20.5-4.8l43.9 20.7c-52.2-35-37.9-32.9-18-32.9 19.6 0.9 43.7 0.5 1.6-17.3 4.4 1.9 12 4.1 16.3 6 28.4 0.8-29.8-20.3-45.1-27.2 23.7 4.9 37.9 11.3 55.3 18.6 22-9.7-40.1-38.1-1.3-46.2-32.4-6.1-43.8-1.4-68.2-6.5 9.2-2.2 35.7-4.4 52 0.8 30.6-4.1 20.6-15.1 9.7-24.1-11.2-9.5-23.2-16.4 2.5-29.9-37.4-1.2-51.9 6.6-77.5 2.7 23.2-3.3 76.1-23.8 80.9-16.3l25-5c1.6-15.9 1.7-42.4-67.6-20.2 48.7-21.5 8.6-6.1 32.4-22.7-6.3 0.5-7.2 3.6-10 5.8-43.1 15-1.5-7.5-9.7-7.8l9-3.2c-11.4 2-22.6 4.5-33.6 7.4 5.3-4.7 12.9-11.8 26.7-20.4l-31.9 19c-2.6-3.8 39.4-26.6 27.4-27.2l-22.6 16.1c12.1-12.9-23.2 4 9.4-19.9 6.4-4.8 4.1-2.1 6-1.6 41.5-39.1-25.1-3.2-9.9-25.3-14.6 13.7-29.4 27.2-44.3 40.6-18.3 7.8 6.7-11.2 22.6-24.8-3.6-3.4 10.2-17.5 9.6-27.4-13.3 8.3-16.9 14.4-29.9 26 1.9-4.9 3.7-9.9 5.3-15.1 8.5-7 17.1-13.9 25.8-20.6-34.4 27.4-36.5 22.2-39.2 15.7-2.4-6.2-4.9-13.6-30.6 17.4 6.9-16 23.6-27.5 27.8-37 5.9-19.4-9.1-12.1-21.5-3.8-12.8 8.2-23.2 17.4-17.9-4.8 1.6-46.8-32.5-15-43.8-46.7l-3.1 15.9q-5.2-7.7-11.4-15.3c-8.9 35-16 17.3-24.3 59 1.4-12.7 1.7-32.4 3.7-41.6-6.3 4.6-12.2 22-15.2 0.3l2.2-13.9c-13-10.2-34.2-9.4-35.9 22-3.5 4.3-8.1-24.3-12.7-43.4-8.7-0.3-11.3 17.2-10.7 43.6-3.2-6.2-6.5-12.4-12.4-26.2 2.5 12.9 5.2 25.9 8 38.7-4.4-4.5-9.8-30.9-15.2-39.9 2.9 48.2-22.8 13.5-30.8 20.4l9.4 17.2c3.8 15.1-14.3-6.7-19.5-26.2-28.4-11.5 7.9 65.8-11.9 67.7-47.2-53.9 0 27.1-55.8-29.5 7 21.6-21.1 4.8 9 41-6.2-5.2-9.3-6.8-9.3-8.9-24.9-16.8-17.2 9.5-5.8 28.4l-20-13.5c40.5 32.9 19.9 37.1 64.1 65.3-10.3-5-18.6-12.1-26-17.8-45.1-20.6 17.1 18.1 5.2 16.7-11.2-6.1-25.2-11.3-33.1-16.6-30-3.6-26.9 14.5-19.4 30.3 7.3 16.7 18.8 30.5-2.1 40.1-2.8 6.4 54.9 5.1 50.2 12.1-26.6-0.2-52.8-10.2-64.5-5.3 32.2 7.6 25.3 7.9 21.9 13.4-17.3-1.9-28.9-1.3-40.5-6.6-22.2 3.6 40.7 16.3-2.4 23.8 16-0.8 25.5 0.3 34.8 1.1 45.7 5.4-43.6 27-18.1 26.1 0 0 7.6 2.5 12.7-1.4-0.5 3.7-7.1 10.4-32.4 14.2 14.2-0.3 36.3-2.9 39.4-0.7l-30 4.6c6.7 0.6 25.8-1.5 29.8-0.8l17.4-6.4c-23.6 9.9 36.9 2-18.9 16.7l-1.6-1c-7.8 4.8-15.3 9.9-22.7 15.3 23.4-3.3 46.4-8.1 40.6-0.8-55.7 22.7-7 17.9-10.1 25.9l-19.1 8.5c28.6-7 23.5 10.5 31.5 3.6 2.6 4.2-6.1 18-23.4 25.4 12.4-2.1 17.6 6.5 47.3-11.9q-18.3 17.7-35.4 36.9c61.5-41.7-8.4 32.1 51.8-18.8-6.2 11.6-19.9 22.6-27.5 34.6 33.1-21.3 32.4-13 33.4-3.3l-5.3 6.2c1.5 9.9 33.2-15.6 41.9-14.3-11.2 16.6-22.2 33.3-33.1 50.1 9.8-3.5 36.4-41.6 33.3-28.7-4 8.3-6.6 10.5-9.4 12.5 10.4-7.5 7.6 8.8 4.1 23.6 27.4-34.3 25.1-17.7 49.6-57.7-17 50.3-16.8 18.1-33.7 64.9-1.2 30.5 23.4 8.6 41.2-13.3-2.4 11.1-6.4 19.7-10.8 31.7 0 0 17.3-32.5 32.1-73.2 15.3-40.6 27.5-89.5 33.2-117.5 9.9-38.2 13.1-61.3 21.9-93.1-4.6 22.8-13.4 49.8-0.4 8l-13.1 39.6c-6.6 18.4 26.1-81.5 30-79l-5.8 12.5c0 2.6-9.7 27.5-4.1 15.1 4.7-10.6 6.6-16.1 9.8-25-5.9 17.9-12.9 35.5-20.8 52.5 10.4-21.9 16.1-33.4 23.2-50.6 1.8 2.8-32.8 68.7-24.7 54.3 8.7-16.1 12-22.6 17.9-35.1 17.8-30.9 4.3-0.8-7.1 18.5 19.6-31.5 15.9-28.6 30.1-48-10.7 16.3-27.5 44-29.1 47.4 19.8-31.9 11.3-16.5 17.4-23.8-7.5 10.6-17.2 25.2-20.8 30.6-3.3 4.9 5.4-7.1 4.4-4.9q-11.2 14.7-21.6 29.7c-21.2 28.2 10.6-16 21.6-27.4 4.3-5.3 7.2-9.1 8.4-10.9 9.9-11.6 31.9-32 11.3-7.2l3.1-3.5c-24.3 27.6-42.4 45.5-68 68.9 5.2-5.7 88.2-83.6 57.6-52.7-24 21.2-57.7 50.8-70.8 57.3 19.4-14.2 38.4-29 56.9-44.4 0.8-0.1-15 12.4-9.2 7.8l-13 9.8c-49.1 36.6 6.7-5.6-24.2 15.3 69.8-46.3 55.7-38.2 123.6-86.5-35.4 28.6-70.6 51.9-62.6 48.1 18.2-11.2 36-22.9 53.5-35.3 15.9-1.7-64.9 48.8-115.8 66.9 43.6-19.1 59.3-25.4 96.3-42.8-2.5 2.4-5.2 4.7-8 6.8 16.1-6.6 32.1-13.4 48-20.5-49 21.8-14.2 9.8-79.4 33.4 8.7-3.3 16.3-6.1 14.1-5.7-19.5 7.6-59.6 22.5-57 20.8 16.2-5.6 25.4-8.5 43.9-15-26.5 9.2 16.4-4.9-2.5 1.7-9.5 2.8-19 5.7-28.4 8.8-37.8 11.7-1.8 0.2-20.9 5.4 16.6-4 38.7-11 62-17.1l-5 1.4c-2.2 1.3-29.3 8.2-6.9 2.9 18-4.4 36-9 53.9-13.8-13 3.8-26.1 7.3-39.3 10.6 6.7-1.3 26-5.1 36.1-8.3 34-2.8-116.6 24.7-66.4 15.9 20.7-3.1 34.4-5.8 22.1-4.3 33-6.2 52.2-9.8 64.9-9.8 2.5-0.4 4.1-0.7 6.1-1 1.3 3.6 4.5 9.8-32.5 13.3z"/>
	<path id="Layer" class="s1" d="m590.6 660c-8.1 1.9-15.5 4.2-22.9 6.9-11.7-0.2 16.6-7.2-3.8-5.8 3.8-0.2 7.7-0.5 11.5-0.9 16.2-5 19.9-6.1-2.5-5.5l-7.5 1.2c18.3-2.7-16.2-3.6-0.4-5 10.2 0.5 16-0.2 25.5 0.3 6.4-1 12.8-1.6 19.2-1.7l-31.4-1.5c3.5-0.4 7-0.7 10.6-0.9 12.5 1.6-9.7-3.1 19.8 0.7-11.2-2.1-23.7-3.1-35.9-3.9 9.1 0.1-4.2-2 13.9-0.1-9-1.7-17.9-3.6-26.8-5.7 6.7 0 13.4 0.3 19.9 0.9-2.6-0.5-4.4-1.1-6.9-1.5 22.7 4.9-11.9-7.7 26.5 3.4-1.4-0.4-2.7-0.9-4.4-1.4 20.6 6.6 6.1 0.7 2.2-1.9 5.2 1.3 24.3 10.4 34.9 15-6.8-2.3-4.1-3.3 23.1 14.7-29.4-18-48.1-27.8-68.2-41.1 14.5 8.2 26.3 14.6 31.8 18.3-9.4-7.3-15.7-14.1-31.4-31.8l16.2 15.6c3.4 2.5 6.7 5.2 9.8 7.9-7.7-7.8-15.6-15.4-23.7-22.7 5.8 5.1 16.6 14.6 24.2 22.6 13.4 14.5-31.1-38.1-8.1-12.6-1.5-2-2.9-3.9-4.3-5.7 11 13.4 8 7.9 12.5 12.6-5.3-8.1-10.7-16.1-16.3-24l2.4 5.8c-15.3-23.6 4.7 2.7 4.3 0.9 6 7.9 17.4 28.6 21.7 36-0.5-1.1 3.4 6.4-0.4-0.9-3.9-8-15.4-30.4-21.7-41 14.5 25.9 12.8 22.5 18.4 33.1-5.6-12.8-8.1-18.5-9.4-20.9 1.8 3.2 4.5 8.8 9.4 20.4-2.1-5.1-4.1-10.3-6-15.5-6.4-23.3 19.4 50.3 14.8 42-3.7-15.1-0.1 3.8-4-14.2-1.2-4.5-7.9-41.6-11.6-58.7 1-10.9 7.2 33.4 8.9 40q-2.6-17.9-5.7-35.7c4 15.3 3.3 19.1 5.7 30.2-1.4-10.3-0.3-9.6-2.4-21.1 2-3.7 1.5-0.5 3.5-4.8l0.9 34.7c0.2 4 0.2-11.4 0.4-17.8-0.2-0.7-0.5 0.5-0.5-4 0.8-30 0.7 16.9 2.1-10.6-0.7 11-1.2 26.3-1 28.4 0.7-21.2 1.9-19.6 2.7-28.5-1.6 14.6 1.2 7-1.6 29.9 2.5-15.7 1.9-16.7 3-28.2-2.7 26.9 2.4 4.2 0.1 19.6 0.4-2.1 0.8-3.6 1.1-4.9-2.9 16.2-2.8 20.5-10.6 43.1 2.1-6.3 4.1-12.6 6.1-19 3.1-8.1-13.2 39.8-14.5 39 10.5-26.3-2.7 1.5 10.1-27.4-6.7 14.7-10.5 21.1-22.4 42.6 6.8-14.4 18.7-34.2 21.6-41.8-2.3 4.4-4.8 8.8-7.4 13.1l7.3-13.5c-5.5 10.1-6.5 10.6-11 18.4 9.1-16 15.9-27 23.2-38.9-2.9 4.8 7.4-9.4-1.5 4l5.2-7.4c-19.8 27.8-3.4 6.2-25.8 33.7 4-5 8-9.9 12.1-14.8-2.2 2.6-26.2 29.4-32.4 35.2-1.4 0.6-4.8 2.9-3.1 0.2 17.2-15.2 18.7-20.2 28.1-28.8 0.3-0.6-2.2 1.2-16 11.8 14.3-11.1 25.5-20.7 26.6-21.8 26.2-22.4-5.9 5.7-2.5 2.1l13-9.5c-8.3 7-31.5 22-55.8 35.8 16.8-10.7 21.5-12.9 38.5-23.6 10.1-6.2-1.5 0.5 0.3-1 12.8-5.9 20.4-9.1 25.9-12.1-13.8 6.7 4.3 1.4-29.4 12.6 13.4-4.3 8.7-2.9 15.3-4.7-7 2-16 4.6-15.1 4.3-13.8 4-27.4 4.3-15.1 1.4l10.3-1.5c5.7-0.1-54.9 2.3-29.3-2.7 7.6-0.3 29 0.6 28.1 0.1-12.9-0.5-39.9-1.6-32.4-3l23.1 1.7c-7.8-0.7-15.5-1.6-23.2-2.8-19.1-1.2-12.6 2.3-33.8-1.1 21.6-0.5-21.2-4.6 4.5-4.9 2.2 1.1 19.7 4 28.9 5.3 13.9-0.3 8.3-1.6 3.3-4.1-5-2.2-9.5-5.7 4.9-3.2-16.8-7.4-19.1-12.1-33.4-21.1 21 9.9 39.5 18.7 55.9 26.4 2.7 1.3-43.5-23.1-13-8.5-27.5-15.6-15.3-13.7-51.4-39.5 7.6 4.8 2.2-2.5 20.8 14.1-9.4-11.8 33.5 19.6 33.5 19.3-0.7-1.3-22.3-17.2-21.8-19.1 1.6 1 5 3.9 6.6 5l-7.4-7.3c8.1 6.3 16 15 24.9 22.4 7.7 5.6-17.5-19-16.9-23.4l5 5.9 2.9-0.5 1.6 2c-3-4.4-5.8-8.9-8.4-13.4l7.1 9c-1.6-2.8-6-8.5-6.2-10.1l8.4 11.4c-13.1-17.6-16.9-29.7-15.3-30.9l3.8 5.2c-4-8.8-7.6-17.8-10.7-27.1 9.7 12 14.1 30.9 12.9 19.2q6.4 13.1 13.2 25.8c-3.4-11.1 4.1 2.6 1.1-7-6.9-13-7.5-10.4-12.2-22.4 16.5 28.9-0.4-9.4-1.8-23.3-1.3 1.2-2.6 1.4 3.3 17.2-1.6 0.1-6.8-13.9-8.2-14.6 1.5 5.3 3.2 10.5 4.9 15.7l-9.3-17.5c1 5.3 2.2 10.6 3.7 15.8-10.9-20.5-4.7-0.7-15.3-22.9 2.3 10.1-8.3-2.9 2.1 18.2-9.6-10.5-6.4-16-9.7-16.8-0.7 23.1-10 26.8-25 32.7l-7.4-7.5c7.3 7.6 13 14 18.8 19.3-15.7-10.3-41.9-13.6-13.1 6.6-1.9-0.6-6.1-3.7-8.1-5.3 1.6 5.4-24.4 2.4-23.8 11.3 33.8 14.6-25.7 3.8 22.1 20.1l-9.7-3.9c13.9 2 32.9 11.9 44.9 15-32.1-6.3-24.3-6-54.2-10.6 3.9-0.1 7.8 0 11.7 0.1l-26.4-5.7c32.6 12.5 24.6 13.1 13.8 15.6-10.7 2-23.7 5.1 1.3 9.5-2.6-0.5-7-0.7-9.6-1.2-15.5 3.1 18.7 7.3 27.8 9.1-13.5 0.3-21.9-1.4-32.3-3.2-10.7 8 26.5 15.6 6.5 24.9 18.3-0.7 23.9-4.7 37.8-5-4.7 2.4-18.8 6.8-28.3 6-16.1 6-9.3 10.8-2.3 14.3 7.2 3.8 14.6 6 2.3 16.5 20.4-4 27.3-10 41.7-11.1-12.1 4.7-38.3 22.3-41.8 18.9l-12.9 5.8c1.1 8.8 4.3 23.2 39.1 2.5-23.7 17.7-3.9 4.4-14.7 16.3 3.3-1 3.4-2.8 4.7-4.4 21.5-13.5 1.7 3.9 6.2 3l-4.5 2.8c5.9-2.5 11.7-5.3 17.3-8.2-2.3 3.2-5.5 8-11.9 14.4l14.9-14.2c1.9 1.7-18 19.3-11.5 18.2l10.2-11.5c-5 8.5 12.1-5-2.6 11.9-2.9 3.4-2 1.7-3.1 1.6-17.6 26.3 14-1.4 8.5 12.5 6.2-9.2 12.5-18.4 18.9-27.5 9-6.5-2.2 6.9-9.1 16.3 2.3 1.4-3.3 10.8-1.8 16 6.2-6.1 7.4-9.9 13-17.8-0.4 2.9-0.8 5.8-1 8.8q-5.6 7.2-11.4 14.4c15.2-19.1 17-16.6 19.3-13.4 2.1 3.1 4.4 6.7 14.4-13.2-1.8 9.5-9.4 17.8-10.5 23.5-0.8 11.3 6.4 5.4 12.1-0.6 5.9-6 10.4-12.3 10.3 0.4 4.9 25.6 19.5 4.1 29.5 19.8l-0.3-9c2.6 2.3 5.2 4.6 8.1 6.9 0.5-20.1 6.5-11.4 5.8-34.9 0.8 7.1 3.1 17.7 3.2 23 2.8-3.3 3.9-13.4 8.2-2l0.6 7.8c8.3 3.9 19.7 0.8 16.7-16.4 1.4-2.8 7.4 12.1 12.3 21.9 4.8-1 4-10.7 0.4-24.9 2.5 3 5.1 5.9 10 12.7-3-6.7-6-13.3-9.2-20 2.9 1.9 9.1 15.5 13.2 19.7-7.6-25.7 10.7-10.1 14.1-14.9l-7.2-8.2c-3.9-7.7 8.6 1.8 13.8 11.8 16.8 2.7-12.4-34.6-2-38.1 32.3 23.3-3.4-14.7 33.9 9-6.5-10.8 10.8-5.2-10-21.1 4 2.1 5.9 2.5 6.1 3.7 15.6 6 8.1-7.3-0.4-16.1l12.5 4.8c-26-12.8-15.4-17.6-42.8-27.4 6.2 1.4 11.6 4.2 16.3 6.4 27 5.6-11.5-7.7-4.9-8.4 6.8 1.9 15 3 20 4.9 16.7-1.8 12.7-11.2 6.7-18.8-6-8.1-14-14.2-3.9-22 0.7-3.8-30.4 4.1-28.7-0.3 14.4-3.2 29.8-1.1 35.6-5.1-18.4-0.1-14.7-1.1-13.5-4.5 9.6-1.1 15.8-2.9 22.8-1.5 11.5-4.7-24-3.8-1.7-13.2-8.6 2.4-13.8 3-19 3.7-25.4 2.7 20.2-20 6.5-16.4 0 0-4.4-0.4-6.7 2.3-0.2-2.1 2.6-6.5 15.8-11.7-7.7 1.9-19.3 6.1-21.2 5.3l15.6-6.2c-3.7 0.5-13.8 4-16 4.1l-8.6 5.7c11.5-8.3-20.2 3.5 8.2-11.4l1 0.4c3.6-3.6 7-7.3 10.4-11.1-12.3 4.7-24.1 10.2-21.9 5.5 27.3-19.2 1.5-10.6 2.3-15.3l9.3-7c-14.6 7.3-14-2.8-17.5 2-1.9-2 1.1-10.5 9.5-16.7-6.5 2.7-10.3-1.3-24.1 12.3 5.1-7.9 10-16 14.6-24.4-28.1 30.2 0.5-18.4-25.7 16.6 1.9-7 7.9-14.7 10.6-22.2-15.3 15.7-15.9 11-17.7 5.9l2.1-4c-2.1-5.2-16 12.6-20.9 13q6-15.6 11.7-31.2c-4.9 3.1-14.5 27.1-14.4 19.7 1.1-5 2.2-6.5 3.6-7.9-4.7 5.4-5.2-3.8-5.2-12.3-10.6 22-11.4 12.7-19.7 37.4 2.9-29.3 6.8-11.9 10.2-39.3-3.1-16.7-13.7-1.7-20.6 12.3-0.1-6.3 1-11.5 1.9-18.5 0 0-5.3 19.7-8.3 43.6-3.2 23.9-3.8 51.9-3.4 67.7-0.6 21.9 0.5 34.8-0.3 53.1-0.3-12.9 1.1-28.6-0.8-4.4l1.8-23.1c1.3-10.8-4 47.4-6.4 46.5l1.6-7.5c-0.3-1.4 1.8-16.1 0.3-8.7-1.2 6.3-1.5 9.5-2.2 14.7 1-10.4 2.6-20.8 4.7-31-2.9 13.1-4.5 20.1-6.3 30.3-1.4-1.3 9.2-41.3 6.6-32.5-2.7 9.8-3.7 13.7-5.3 21.2-5.8 18.9-2.2 1 1.5-10.9-6.7 19.5-5 17.5-10.3 29.7 3.8-10.2 9.4-27.3 9.9-29.3-6.8 19.7-4.1 10.4-6.5 15 2.7-6.7 6.2-15.8 7.5-19.2 1.1-3.1-2.1 4.5-1.8 3.2 2.8-6.2 5.5-12.5 8-18.8 7.9-17.9-3.7 10-8.3 17.5-1.7 3.4-2.8 5.8-3.2 7-3.9 7.5-13.3 21.3-5.2 5.3l-1.2 2.3c9.7-18 17.3-29.9 28.2-45.8-2.1 3.7-37.4 56.3-24.6 35.7 10.3-14.5 24.9-34.7 31.2-39.9-8.8 10.1-17.2 20.5-25.3 31.1-0.4 0.2 6.6-8.6 4-5.4l5.8-6.9c22.1-25.9-3 3.9 11.2-11.3-32 33.7-25.4 27.6-56.1 62.2 15.6-19.9 31.8-36.9 27.9-33.9-8.5 8.3-16.6 16.9-24.6 25.8-8.4 2.9 29.1-34.5 54.4-50.6-21.2 15.8-29 21.1-46.8 35.2 1.1-1.6 2.2-3.2 3.5-4.7-7.9 5.6-15.7 11.3-23.5 17.1 23.8-17.9 6.5-7.1 38.8-28-4.3 2.9-8 5.3-6.9 4.8 9.6-6.5 29.5-19.6 28.3-18.3-8.1 5-12.7 7.8-21.9 13.6 13.2-8.2-8.3 4.7 1.1-1.2 4.8-2.7 9.6-5.5 14.3-8.3 19-11 0.9-0.3 10.7-5.5-8.5 4.2-19.6 10.8-31.4 17l2.5-1.4c1-1 14.8-8.1 3.4-2.4-9.2 4.6-18.4 9.3-27.5 14.2 6.6-3.7 13.2-7.2 20-10.6-3.5 1.6-13.4 6-18.5 9-18.1 5.7 60-27.9 34-16.9-10.8 4.3-17.9 7.4-11.4 5.1-17.1 7.5-27.1 11.8-33.9 13.4-1.3 0.5-2.1 0.9-3.2 1.3-1.1-1.4-3.6-4.4 16-10.9z"/>
	<path id="Layer" class="s2" d="m224.4 167c9.6 0 18.6-0.7 27.6-1.8 13.2 3.2-20.6 3.9 2.7 7.6-4.4-0.7-8.8-1.4-13.2-2-19.6 1.4-24 1.7 1.4 6.9l8.8 0.7c-21.4-1.7 17.3 8.2-0.9 5.8-11.4-3.2-18.1-4-28.8-7-7.5-0.5-14.9-1.5-22.1-3l35.1 9.9c-4.1-0.4-8.1-1-12.2-1.7-13.7-5 10.1 6-22.2-6 12.2 5.3 25.9 9.6 39.5 13.7-10.3-2.5 4.2 3.3-15.7-3.5 9.7 4.3 19.3 8.8 28.8 13.4-7.6-1.7-15-3.8-22.3-6.2 2.8 1.2 4.7 2.4 7.4 3.5-24.4-11.4 11.5 11.8-29.1-10.7 1.5 0.9 2.8 1.7 4.6 2.7-21.6-12.8-6.7-2.4-3 1.5-5.6-2.8-24.7-18.1-35.5-25.9 7.1 4.4 3.8 4.7-22.3-22.6 28.5 27.9 47.1 43.9 66.4 64.1-14.3-13.1-25.9-23.3-31.2-28.9 8.7 10.7 14.1 20 27.2 44l-14.2-21.8c-3.2-3.7-6.3-7.6-9-11.5 6.7 10.8 13.6 21.4 20.9 31.8-5.3-7.2-14.9-20.7-21.5-31.8-11.3-19.9 25.2 51.1 5.9 16.3 1.2 2.6 2.3 5.2 3.4 7.6-8.9-18-7-11-10.8-17.5 3.9 10.5 8 20.9 12.2 31.3l-1.2-7.2c11.2 30.6-4.6-4.2-4.7-2.2-4.7-10.5-12.2-36.9-15.2-46.3 0.3 1.4-2.2-8.1 0.2 1.1 2.4 10 9.5 38.3 13.9 51.9-9.6-33-8.7-28.7-12.2-42.2 3 15.9 4.3 23 5.2 26.1-1.2-4.1-2.8-11.1-5.3-25.5 1 6.3 1.9 12.7 2.8 19.1 1.2 28-8.8-61.8-5.8-51.3 0.2 18 1.1-4.3 0.8 17.1 0.1 5.4-1.9 49.1-2.2 69.3-3.9 12.1 0.5-39.6 0.3-47.5-1.2 13.9-2.1 27.8-2.8 41.8-0.5-18.4 1.2-22.4 1.4-35.6-1.1 12-2.1 10.9-2.8 24.5-3.2 3.7-1.9 0.2-5.1 4.5l8-39.5c0.8-4.6-3.2 12.8-5.1 20 0 0.8 0.7-0.4-0.5 4.6-8.7 33.7 3.6-19.3-5.1 11.4 3.6-12.2 8.1-29.4 8.5-31.8-6.3 23.8-7.2 21.6-10.4 31.5 5.6-16 0.5-8.2 9.6-33.3-6.9 17.1-6.5 18.3-10.7 31 10-29.7-1.6-5.4 4.9-22.2-1 2.2-1.8 3.8-2.5 5.3 7.4-17.5 8.5-22.4 23.1-46-4 6.6-8 13.2-11.8 19.9-5.6 8.4 25.2-41.5 26.5-40.3-18.7 27 3.4-1-18.6 28.3 11.4-14.9 17.3-21.1 36.3-42.3-11.4 14.5-30 33.8-35.2 41.5 3.8-4.4 7.7-8.7 11.8-12.9l-11.7 13.4c8.9-10 10.1-10.3 17.2-17.9-14.5 15.7-24.9 26.4-36.3 37.9 4.5-4.6-10.8 8.7 2.8-4.1l-7.8 6.9c29.6-26.3 5.4-6.1 37.8-31.3-5.8 4.6-11.7 9.1-17.6 13.6 3.2-2.3 37.2-26.4 45.7-31.4 1.7-0.3 6.2-2 3.6 0.6-23.4 12.7-26.3 17.9-39.2 25.2-0.5 0.6 2.8-0.8 21.2-9.2-19 8.8-34.1 16.8-35.7 17.7-35.5 18.5 8.1-4.9 3.4-1.7l-17.1 7.4c11.2-5.8 41.3-16.6 72.3-25.9-21.7 7.7-27.6 9-49.6 16.7-13 4.4 1.8-0.2-0.6 1.1-16 3.3-25.4 4.9-32.3 6.9 17.3-4-4.4-2.7 36.5-6.6-16.3 1.4-10.5 1-18.4 1.3 8.4-0.5 19.3-1 18.1-0.9 16.6-1 32.1 2.2 17.4 2.3l-12-1c-6.5-1.3 62.6 11.7 32.4 10.7-8.6-1.6-32.6-8.2-31.7-7.4 14.4 4 44.7 12.2 35.8 11.8l-25.6-7.9c8.6 2.8 17.1 5.9 25.5 9.1 21.3 6.4 14.8 0.7 37.9 10.1-24.6-5.1 22.7 10.7-6.3 4.4-2.2-1.8-21.2-9.7-31.3-13.5-15.7-3.3-9.8-0.4-4.7 3.8 5.1 3.8 9.3 9-6.3 2.3 17.1 12.7 18.4 18.6 32.3 32.6-21.1-16.6-39.7-31.4-56.3-44.3-2.7-2.2 43.1 37.4 12.4 13 27 24.8 13.7 19.5 47.8 57.9-7.3-7.4-3.1 2.3-19.8-21.3 7.6 15.8-32.7-30.9-32.8-30.5 0.4 1.7 20.7 25.2 19.7 27.2-1.5-1.6-4.7-5.7-6.1-7.3l6.5 10.1c-7.5-9.1-14.2-21.1-22.3-31.8-7.2-8.3 14.8 26 13.1 30.9l-4.1-8-3.4-0.2-1.2-2.7c2.2 5.7 4.2 11.5 5.9 17.4l-5.7-12c1.1 3.6 4.5 11.2 4.3 13l-6.6-15c10.2 23.3 11.4 38 9.2 38.9l-2.9-6.8c2.3 11 4 22.1 5.1 33.4-7.9-16-7.9-38.5-9.6-25-2.6-10.9-5.3-21.8-8.2-32.6 0.9 13.4-4-4-3.1 7.6 4.5 16.4 5.8 13.7 8 28.5-11.2-36.9-2 10.7-3.9 26.7 1.7-1 3.3-0.9 0.7-20.3 1.8 0.3 4.1 17.4 5.5 18.6-0.3-6.4-0.8-12.7-1.5-19l6 22.2c0.2-6.3 0.2-12.6 0-18.8 7 26 5.1 2 11.4 29.8 0-12 8.6 5.4 2.3-21.1 8.1 14.3 3.1 19.8 6.6 21.4 6.8-25.9 18.3-27.7 36.7-30.4l6.4 10.4c-6.2-10.5-11.1-19.2-16.2-26.7 15.1 15.7 43.8 26.3 16.5-4 2 1.2 5.9 5.7 7.8 8.1-0.5-6.5 28.1 3.6 29.8-6.6-34.4-25.2 30 2.4-19.7-28.5l9.9 7c-15.2-5.8-34-22-46.8-28.5 34.6 15.4 25.9 13 58.4 26-4.4-0.9-8.8-2-13.2-3.1l28.3 13.3c-34-23-24.9-21.6-12-21.6 12.6 0.6 28.1 0.3 1-11.1 2.8 1.2 7.8 2.6 10.5 3.9 18.3 0.5-19.2-13.1-29-17.5 15.3 3.2 24.4 7.3 35.6 12 14.1-6.2-25.8-24.5-0.8-29.8-20.9-4-28.2-0.9-43.9-4.2 5.9-1.4 23-2.8 33.5 0.5 19.7-2.6 13.3-9.7 6.2-15.5-7.2-6.1-15-10.6 1.6-19.2-24.1-0.7-33.4 4.3-49.9 1.7 14.9-2.1 49-15.3 52.1-10.5l16.1-3.2c1-10.2 1.1-27.3-43.5-13 31.4-13.8 5.5-3.9 20.9-14.6-4 0.3-4.6 2.3-6.4 3.8-27.8 9.6-0.9-4.8-6.2-5l5.8-2c-7.3 1.3-14.6 2.9-21.6 4.8 3.4-3 8.3-7.6 17.2-13.2l-20.8 12.1c-1.7-2.4 25.4-17.1 17.6-17.5l-14.5 10.4c7.8-8.3-14.9 2.6 6.1-12.8 4.1-3.1 2.7-1.4 3.9-1 26.7-25.1-16.1-2.1-6.3-16.3q-14.1 13.2-28.5 26.1c-11.8 5 4.3-7.2 14.5-16-2.3-2.2 6.6-11.3 6.2-17.6-8.6 5.3-10.9 9.3-19.3 16.8 1.2-3.2 2.4-6.4 3.4-9.7 5.4-4.5 11-8.9 16.6-13.2-22.2 17.7-23.5 14.3-25.3 10.1-1.5-4-3.2-8.7-19.7 11.2 4.4-10.3 15.2-17.7 17.9-23.8 3.8-12.5-5.9-7.8-13.9-2.5-8.2 5.3-15 11.2-11.5-3.1 1.1-30.1-21-9.6-28.2-30.1l-2 10.2c-2.3-3.3-4.7-6.6-7.3-9.8-5.7 22.5-10.3 11.1-15.6 38 0.9-8.2 1.1-20.9 2.4-26.8-4.1 3-7.9 14.1-9.8 0.2l1.4-8.9c-8.4-6.6-22-6.1-23.1 14.1-2.3 2.8-5.2-15.6-8.1-27.9-5.6-0.2-7.3 11.1-6.9 28.1-2.1-4-4.2-8-8-16.9 1.6 8.3 3.3 16.6 5.2 24.9-2.8-2.9-6.3-19.9-9.8-25.7 1.9 31-14.7 8.7-19.8 13.1l6 11.1c2.4 9.7-9.2-4.3-12.5-16.9-18.3-7.4 5.1 42.3-7.7 43.6-30.4-34.7 0 17.5-35.9-19 4.5 13.9-13.6 3.1 5.8 26.4-4-3.4-6-4.4-6-5.7-16-10.8-11.1 6.1-3.7 18.3l-12.9-8.7c26.1 21.2 12.8 23.9 41.2 42-6.6-3.2-12-7.8-16.8-11.5-29-13.3 11 11.7 3.4 10.8-7.2-3.9-16.2-7.3-21.3-10.7-19.3-2.4-17.3 9.3-12.5 19.5 4.7 10.7 12.1 19.6-1.4 25.8-1.8 4.1 35.3 3.3 32.3 7.8-17.1-0.1-34-6.5-41.5-3.4 20.7 4.9 16.3 5.1 14.1 8.6-11.1-1.2-18.6-0.8-26.1-4.3-14.3 2.3 26.2 10.5-1.6 15.3 10.3-0.5 16.4 0.2 22.4 0.7 29.4 3.5-28.1 17.4-11.6 16.8 0 0 4.9 1.6 8.2-0.9-0.3 2.4-4.6 6.7-20.9 9.1 9.2-0.2 23.4-1.9 25.3-0.4l-19.3 3c4.3 0.4 16.6-1 19.1-0.5l11.2-4.2c-15.2 6.4 23.8 1.3-12.2 10.8l-1.1-0.7c-5 3.1-9.8 6.4-14.6 9.8 15.1-2.1 29.9-5.2 26.1-0.5-35.8 14.6-4.5 11.5-6.5 16.7l-12.3 5.5c18.4-4.5 15.1 6.8 20.3 2.3 1.7 2.7-3.9 11.6-15 16.4 8-1.3 11.3 4.2 30.4-7.6q-11.7 11.4-22.8 23.7c39.6-26.8-5.4 20.7 33.3-12.1-4 7.4-12.8 14.6-17.7 22.3 21.3-13.7 20.9-8.3 21.5-2.1l-3.4 4c1 6.4 21.4-10.1 27-9.2-7.2 10.7-14.3 21.4-21.3 32.2 6.3-2.3 23.4-26.8 21.4-18.4-2.6 5.4-4.2 6.7-6.1 8 6.7-4.8 4.9 5.6 2.6 15.2 17.6-22.1 16.1-11.4 31.9-37.2-10.9 32.4-10.8 11.7-21.7 41.8-0.8 19.6 15.1 5.5 26.5-8.6-1.6 7.2-4.1 12.7-6.9 20.4 0 0 11.1-20.9 20.7-47.1 9.8-26.2 17.7-57.6 21.4-75.6 6.4-24.6 8.4-39.5 14.1-59.9-3 14.7-8.7 32-0.2 5.1l-8 25.6c-4.2 11.8 16.8-52.5 19.3-50.9l-3.7 8c0 1.7-6.3 17.7-2.6 9.7 3-6.8 4.2-10.4 6.3-16.1-3.8 11.5-8.3 22.9-13.4 33.8 6.7-14.1 10.3-21.5 14.9-32.5 1.2 1.8-21.1 44.2-15.9 35 5.6-10.3 7.7-14.5 11.5-22.6 11.5-19.9 2.8-0.5-4.6 11.9 12.6-20.3 10.2-18.4 19.4-30.9-6.9 10.5-17.7 28.3-18.8 30.5 12.8-20.5 7.3-10.6 11.2-15.3-4.8 6.8-11.1 16.2-13.4 19.7-2.1 3.2 3.5-4.5 2.8-3.2-4.8 6.3-9.4 12.7-13.9 19.1-13.6 18.1 6.8-10.3 13.9-17.7 2.8-3.4 4.6-5.9 5.4-7 6.4-7.4 20.5-20.6 7.3-4.6l2-2.2c-15.7 17.7-27.3 29.3-43.8 44.3 3.4-3.7 56.8-53.8 37.1-33.9-15.4 13.7-37.1 32.7-45.6 36.9 12.5-9.1 24.7-18.7 36.6-28.6 0.5-0.1-9.7 8-5.9 5.1l-8.3 6.3c-31.6 23.5 4.3-3.6-15.6 9.9 44.9-29.8 35.9-24.6 79.5-55.7-22.8 18.4-45.4 33.4-40.3 31 11.7-7.2 23.2-14.8 34.5-22.7 10.2-1.1-41.8 31.4-74.6 43.1 28-12.3 38.2-16.3 62-27.6-1.6 1.5-3.3 3-5.1 4.4q15.6-6.3 30.9-13.2c-31.6 14-9.1 6.3-51.1 21.5 5.6-2.1 10.5-3.9 9.1-3.7-12.5 4.9-38.3 14.5-36.7 13.4 10.4-3.6 16.4-5.5 28.2-9.6-17 5.9 10.6-3.1-1.6 1.1-6.1 1.8-12.2 3.7-18.3 5.6-24.3 7.5-1.1 0.1-13.5 3.5 10.7-2.6 24.9-7.1 39.9-11l-3.2 0.9c-1.4 0.8-18.8 5.3-4.4 1.8 11.6-2.8 23.1-5.8 34.7-8.9-8.4 2.4-16.8 4.7-25.3 6.8 4.3-0.9 16.7-3.3 23.2-5.4 21.9-1.8-75 15.9-42.7 10.2 13.3-2 22.2-3.7 14.2-2.8 21.2-4 33.6-6.3 41.8-6.3 1.6-0.2 2.7-0.4 3.9-0.6 1.2 2.2 3.2 6.2-20.6 8.5z"/>
	<path id="Layer" class="s3" d="m800.5 174.2c-13.6-3-40.4 6.1-39.2-17.3-5.5-8.1-1.7-19.8 1.2-27.8 20.3-3.9 0.4-10.5 18-12.7-3.8-1-7.5-2.1-11.2-3.3 6.1-0.5 10.2-1 4.4-3.8l-3.3-0.7c9 0 4.7-3.5 9.2-3.2l-3.3-1 2.2-1.9-4.7-1.2c10.1-0.4 11.7-2.7 9.6-7.5l12.3 6.9c-10.4-13.5 14.5 1.8 2.9-13.3l-2.6-2.2c16.1 10 12.2 4.9 10.2-2-2.6-6.6-3-14.5 9-1.3-3-3.3-3.5-6.4-5.2-9.3 5 1.8 9 2.1 20.2 27.5 0.9-0.7-2.5-8.4-6.3-18.3 4.7 11.2 7.5 15.4 8.6 15.9l-2-4.3c1.4 1 2.7 2 4 3.1 1.7 7.4 3.4 14.8 5.4 22.2-1.2-6.5-6.5-27.1-4.1-21.9l3.8 18.5c-0.4-3.8-3.2-32.4 0.1-46.6 7.7-4.4 15.3 7.3 17.9 15.9 3.4 9 2.9 13.1 18.6 4.9l10.4-9.8c15.4-14-19.4 24.1-5.3 11.2-2.1 2.5-4.2 4.9-6.4 7.2 3.1-2.1 6.8-3.9 9.9-7.4 1.6 0.6-1.1 2.8-5.6 7.3 3.7-2.2 7.5-4.3 11.4-6.2 12.5 0.7-7.4 16.7-1.5 19.3 13.8-0.7 15.7 6.7 11.4 12.3-4.3 5.9-14.7 9.8-22.1 10.7-16-0.4-3.9 4.8 3.7 16.4 8.4 10.5 10.4 26.2-5.8 16.4 1.6 2.5-3.3-2-4.8-3.9-1.7 2.6-3.8 5.2-6.2 7.5 1 0.1-12.5 7.5-20-11.9-3.6-9.4-3.7-24.8-3.5-48.2-0.9-22.8 0.4-57-29.2-94.5l-0.6-4.5c-14.7-7.6-25.9-5.1-22 18.7-14.8-23.8-10 2.5-16.9-3.5l-1.1-2c7.2 21.1-24.3-3.8-17 16.1-1.4-1.8-6.8-7.3-5.7-8.9-1.8 6.7-1.8 16.2-14.7 6.4-5.9 13-22.6 29.4-1 46.6l-4-2.1c14.9 10.3 0.3 6.4 7.5 13.8-2.1-0.3-3.3-0.3-4.1-0.6 15.4 8.6-0.2 13.7 6.7 18.6l-10.8-0.9c0.5 3.2 1.2 6.4 1.9 9.5l2.5-3.3c29.6 1.9-19 6.6 0.7 13.4-1.7 3.3 14.1 5 28.3 5 14.3 0.3 27-1.1 20.4 2.3 13.9-1.6-22.3 3.8-11.2 4.1-14.9 4.2-9.8 0.9-21.5 4.9 7.9 1.5-13.3 11.2-1.5 12.8l-11.2 4.6c22.6-2.5-8.2 20.2 12.9 14.5 12 0.4-26.8 24.7-2.4 17.9-3.6 4.2-7.1 8.6-10.5 13 0.8 4.9 17-10.9 13.9-2.5-7.8 6.7-2.1 9.7-10.9 14.6-1.9 9.6 6.6 9.6 13.7 9.8 7.5 0.4 13.3 1.1 12.5 16.5 12.8-15.5 12.9-2 21.6-14.5-3.7 8.1 11.5 6.7-3 21-1.3 1.1-2.3 0.3-0.8-2.7l-5.8 10.4c-0.2 24.5 19.7-5.2 25.8-0.1-1.3-4.4-4.6-4.3-0.3-11.5l6.5 3.4-3.9 9.3c3.3 2.8 6.7 5.6 10.3 8.1l0.6-12.4c3.9 7.1 4.1 28.4 12.3 11.5 3.4-9.5-3.4-16.9 2.2-20.4 5.6 9 16.9 21.7 27.6 24.2-2.5-13.7 0.1-13.5 2.2-16.7l2.1 11.9c7.1-18.2 8.7 25.7 17.1 10.1l1 8.4c-1-8.4-2.1-16.8-3.4-25.2 1.6-25.2 12.7 22.6 11.7-11.7-2.9 3.2-10.6-24.4-5.3-20.8l3.3 11.2c1.3-3.2 0.1-7.9 2.5-6.3 1.2 6.3 6 15.9 8.7 12.5q2 7.2 3.6 14.4c-0.5-7.6-1.3-15.2-2.5-22.6 10.9 8.7 10.2-9.4 21 3.1-0.2 0.3 15.4-1.1 5.9-16.8 5.2 10.3 13.3 9 20.3 20.2-5.2-12.2-6.1-25.6 6.4-19.4l0.6 1.6c10.3-0.9 11.1-9.5 11-17 0.1-7.6-0.6-14.2 10-16-12.6-6.1-2.9-8.5-19.6-15.1-5.4-9 4.7-9.7 10.5-12.8 5.7-2.8 6.6-7.1-19.7-16-1.8-5 14-2.4 17.3-4.5l2.7 1.8c-2.7-10.6-3-13.1-1.4-20.1-5.3-3.9-30.9-4.4-24.9-9.4 10.3 1.3 8.3-0.8 8.2-2.9 1.7 1.2 5.5 1.6 12.1-1.9-3.2-0.2-5.2-0.7-6.8-1.1 0.8-0.1 1.4-0.3 2.5-0.3-3.9-3.3-7.1-2.2-8.2-0.5-1.6 0.1-3.5 0.4-6.3 1.2 12.8-5-2.2-9.3 14.9-12.9-6.5-10.8-26.3-11.9-35.4-15.1 7.8-4.7 15.8-6.5 20.1-5.5-1.9-1.5-3.8-2.8-5.6-4.2 11.6-5.8 8.3 0 11.5 0.7 7.9-7.9 1.1-10.1-5.7-10.8-7-1-13.5-0.9-8.5-10.1l-9.3 4.7 1.1-1.4c-4.3 3.3-11.2 6.5-13.2 6.8 8-8 20.2-16.5 16.6-19.5 5.6-10.3-11.3-4-18.3-1.8 0.5 3-4.3 7.1-7.6 9.5-1.5-0.9 4.8-10.3 0.5-7.5l9.4-12.1c-8.4 11.7-13.8 9-17.9 13.8 5.6-9.9 8.1-6.2 13.7-12.6-7.9-4-3.9-2.1-12-5.4-9.4 7.8-6.6 12.9-14.9 23.5-4.3 1-11 9.7-10.1-0.1-1.4 4.3-2.9 8.6-4.5 12.8-8.2 8-8.5 6.2-8.2-7.8-15.2 24.8-16.3 49-16.7 68.1 0 19.3 1.1 34.8 0 46.7-1.4 24.2-11.6 33.3-11.7 33.2-11 13.5-20 8.5-23.6-1.3-4.4-10.7-3.9-24.9-6.3-33.8z"/>
	<path id="Layer" class="s4" d="m830.4 281.2c14 9.8 13.6-0.6 22.8 2.9-1.6-8.3-2.9-16.7-3.9-25.1 11 5.3 9.9 19.2 18.4 30.4 3.2-17.5 20.5-4.5 22.8-5.5 2-11.7-3.4-15.9-5.3-22.8 10.7 8 9.6 32 19.1 32.9l0.8-6.8c10.5 18.9 18.7 28.4 26.1 37.5 7 8.8 13.4 18.3 10.5 32-1.7 0.1-5.4 3.9-9.3 7 1.3 7.9 2.5 15.5-4.1 23.3-6.6 7.4-21.8 14.3-51.5 12.5 3.2 0.9-4.9 3-7.7 6.6-2.9 3 0.1 6.9 19.9-3.5-14.8 9.9 6.9-4-13.1 11.4-2.7 5.5 5.4 1.4 11.9-6.2 6.8-7.2 12.2-17.6 11.2-18.4-2.1 4-6.9 15.4-11.5 26.2-2.4 3.3-5.4 6.4-8.7 8.9-1 3.4-1.7 6.7-2.1 10.3-6.8 9.2-6.4-0.1-19.9 17.9 11.3-8.7 15.2-8.1 19.9-8.5 4.4-0.4 9.6-2.1 13.6-17.6-0.4-5.8-3.4 0.3-4.7-2.2 1.9-7.9 3.7-13.5 8.6-24.5 6.8-16.2 5-21.6 3.4-23.2-2-1.8-3.7-0.2-6.9-5.4-1.7-2.5-3.6-0.2-0.6 11.3 1.4 3.9 3.4 13.5 4.7 19.1-2.5-9.8-9.8-42-11.7-36.5 4.5 13.1 8.8 26.2 12.9 39.5-6.5-21-6.9-18.7-5.5-14.8 1.1 4.1 4.4 9.8-2-1.4 7.9 14.6 12.6 23.1 12 24.6 4.2 6.1-6.8-15.6-6.8-14.8 6 10.1 11.6 20.5 16.7 31.2-15.3-30.1 5.2 4.6 13.8 12.5-5-7-20.7-28.9-18.6-27.9 3.2 3.2 8.5 10.4 11.8 14.2-5.2-7-15-19.7-15.4-20.5 8.2 8.6 11.5 13.5 19.3 22.9 0.7-1.4-0.4-3.7 7.3 2.4-5.4-8.5-12.3-11.8-21-21.3 7.7 3.9 31 27 51 42.2 9.3 15.3 5.9 25.9 8.5 35.6 1.8-5.6 3.1-11.2 3.9-16.7 9.1 10.8 25 8.1 28.9 23.8 22.7-5.4 22.5-35.5 16.4-53.5-5.3 0.5-9 1.9-16.9-1.8-5.2-9.4 10.8-2.9 20.9-1.5-7.4-8.7-30.7-14.5-47.3-21.2 21.5-4.2 9.6-6.8 39.3-13.5l-24-0.7c19.6-5.4-16.7-6.1-2.9-11.9 5.1-0.7 11.4 1.1 17 3-8-5.2 19.8-7.2 9.9-12.8 9 0.4 18.1 1.2 27.2 2.4-1.5-6.2-11.3-13.5 11.7-14.5-28.6-5.9-24-25.7-44.1-30l18.8-8.8c-24.6 6.2-12.7-23.3-40.2-8.6l5.9-6.1c-9.7 2.8-19.1 6.5-27.9 11-1.4-4.8 20.6-26.9 14.5-20.7-12.7-3.9-20.2-6.7-21.7-19.8-15.6 23.1-27 25.6-34.8 26.8-14-13.9-37.5-12-51.4 1.1-14.5 12.8-18.8 35-12.2 52-1.3 3.2 21.9 24.1 33.9 30.4 5.9 3.6-5.9-4.1-5.2-5 6 4 26.9 24.1 37.1 38.7-5-6.1-10.1-11.9-15.4-17.7-13.6-13.3 7 10.6-8.7-7.4l22.8 30.2c-12.3-14.9-4.4-1.1-0.8 8.1-4.8-7.3-9.5-14.7-14-22.1 5.8 13.2 6.8 19.4 15.6 41.6l-9.6-22c5.3 14.5-10.4 0.9 4.8 38.9-2.8-4.9-7-16.6-8.4-13.3l4.9 23.4c-5.8-5-10.3-9.1-10.2 4.4 3.1 5.4 5.5 15.7 8.1 25.9-12.4 3.7-14.6-16.3-15.8-36.5-1.3-20.3-2.3-41.4-5.8-42.7l-1 15.5c-0.5-5.5-0.8-11.1-0.8-16.6-1.4 6.4-3.1 12.8-5.1 19.1 2.2-26.5 1-25.5-3.2-22.3-3.8 3.4-11 8.2-6-5.2 1.4-4.1-18.1 20.8-20.6 14.3l15.4-18.3c-17.1 18-39.2 17.7-91.8 36.1 12.5-15.8 4.8-1.6 21.1-11.3 16.3-22.3-17.2-6.1-33.8-10 8.3-12.6 10.9 3.7 26.3-7.2-21.3-7 25.2-16.7 7.8-25.7-13.5 0.2-8.8 4.7-17.3 7.8 22-13.6 7.1-29.6 15.9-44.2-12.3-21.2-6.1-49.9 1.4-84.2l6.1 6.2c-5.1-24.9 17.8-15.6 24.8-29.8-0.4 5.1-0.4 9.8-0.2 14.5z"/>
	<path id="Layer" class="s5" d="m1028.4 626.2c2.1 5.6 4.7 10.6 7.5 15.5 0.7 8.5-7.6-10.8-4.9 3.7-0.5-2.7-1.1-5.5-1.7-8.2-5.6-10.9-7.4-13.1-4.9 2.8l1.8 5.2c-4.3-12.7-1.7 12-4.6 1-0.7-7.3-1.9-11.4-2.4-18.2-1.7-4.4-3.1-8.9-4.2-13.4l2.3 22.6c-0.8-2.4-1.6-4.9-2.3-7.4-0.1-9-1.8 7.3-2.3-14.2-0.5 8.2 0.5 17.2 1.3 26-1.2-6.5-1.2 3.2-2.1-9.9-0.3 6.6-0.8 13.1-1.4 19.7-1-4.8-1.7-9.6-2.2-14.3 0 1.9-0.3 3.3-0.3 5.1 0.7-16.7-4.9 9.4-1.6-19.4-0.1 1.1-0.3 2-0.5 3.3 2.2-15.5-0.9-4.6-2.4-1.6 0-3.9 4.6-18.4 6.7-26.5-1.8 4.9-2.5 3.2 6.5-18.5-10 22.7-14 37.6-21.8 53.1 4.2-11.3 7-20.6 8.6-25.1-4.6 7.3-9.4 12.2-20.5 25l9.4-13.2c1.2-2.9 2.6-5.6 4.1-8.2-4.6 6.4-9 12.9-13.3 19.6 2.9-4.8 8.2-13.6 12.9-20.1 8.3-11.5-24 26.1-8.7 6.6-1.3 1.3-2.5 2.5-3.6 3.7 8.2-9.4 4.3-7 6.9-11.1-5.1 4.7-10.2 9.5-15.1 14.4 1.4-0.7 2.8-1.4 4.1-2.1-15.2 13.3 1-4-0.4-3.8 4.8-5.4 18.4-15.6 23-19.7-0.8 0.4 4-3.4-0.8 0.1-5.4 3.4-19.9 14.3-26.7 20 16.7-13.4 14.4-11.9 21.1-17.5-8.5 5.3-12.3 7.8-13.8 9.1 2-1.7 5.7-4.4 13.3-9.2-3.5 2-6.9 3.9-10.5 5.8-16.2 6.6 33.2-19.8 27.6-16.3-10.3 4.5 2.5-0.9-10 3.6-3 1.5-28.8 10.1-40.5 14.7-8.1 0 22.9-9 27.2-11.4-8.3 2.6-16.5 5.3-24.7 8.2 10.3-5 13.2-4.6 20.6-7.9-7.1 2.3-6.8 1.1-14.7 4.1-3-1.6-0.6-1.5-3.9-3l24.6-4.5c2.8-0.8-8.2 0.9-12.7 1.4-0.4 0.3 0.4 0.5-2.8 1-21.5 2.5 11.9-2.7-7.9-0.9 7.9-0.7 18.9-1.9 20.3-2.5-15.2 1.9-14.2 0.4-20.7 0.8 10.5-0.3 4.7-2.1 21.4-2.6-11.5-0.3-12.1 0.5-20.4 1 19.5-1.3 2.8-3 14-3.3-1.5-0.1-2.6-0.2-3.6-0.2 11.8 0 14.9-1 31.9 1.5-4.7-0.8-9.5-1.4-14.3-2.1-6-1.9 29.9 4.7 29.6 5.3-19.9-4.5 1.6 1-20.5-4.7 11.3 2.9 16.3 4.6 32.9 10.5-10.9-3.5-26.5-9-32.1-10.6 3.4 1 6.9 2.2 10.2 3.4l-10.4-3.7c7.8 2.8 8.4 3.1 14.4 5.5-12.4-4.8-20.9-8.5-30.2-12.4 3.8 1.3-7.3-4.8 3.4-0.1l-5.8-2.9c22.1 10.8 5.1 1 27.1 13.8-4-2.3-7.9-4.7-11.8-7.1 2.3 1 24 15.2 28.9 18.8 0.7 0.8 2.8 2.8 0.8 1.8-13-10.2-16.3-11.3-23.4-17.1-0.3-0.3 1.5 0.8 10.7 9.4-9.6-8.8-17.6-15.8-18.7-16.2-18.7-16.4 5.1 3.1 2.5 0.8l-8.2-8.2c6.4 4.7 19.6 19.6 32.3 35.1-9.4-10.8-11.6-13.9-21.2-24.7-5.2-6.8 1.4 0.2 0.5-1.1-5.4-8.6-8.7-13.6-11.5-17 6.8 8.8 1.5-3.8 13.4 18.8-4.7-9-2.8-6-4.6-10.5 2.2 4.8 5 10.9 4.7 10.2 4.7 9.3 7.1 18.7 4 10.1l-2.3-7.1c0-4.4 8.8 38.5 3.4 20.7-0.9-5.4-2.9-20.7-2.8-20.1 1.2 9.2 3.4 28.6 2 23.3l-1.4-16.6q0.6 8.4 0.9 16.8c1.1 13.8 2.4 8.8 2.6 24.3-2.3-15.4-0.6 15.5-3.2-2.7 0.4-1.7 0.5-14.5 0.3-21.2-1.2-9.8-1.2-5.7-2.1-1.8-0.7 3.8-2.3 7.4-1.6-3.1-2.9 12.9-5.4 15.2-9.9 26.5 4.7-16 9-30.2 12.4-42.8 1-1.9-11.1 33.7-3.7 10.4-7.9 21.4-7 12.9-21.3 41.5 2.6-5.9-1.6-1.1 7.8-16.3-6.9 8.3 11-25.7 11-25.5-0.7 0.7-10 17.7-11 17.7 0.6-1.2 2.3-4 2.9-5.2l-4.3 6.1c3.7-6.3 8.8-13.2 13.1-20.3 3.5-5.8-11 15-13.7 15.4l3.6-4.2-0.2-1.7 1.2-1.4c-2.7 2.7-5.4 5.3-8.3 7.7l5.6-6.1c-1.7 1.6-5.3 5.3-6.3 5.7l7.1-7.3c-11 11.4-18.8 15.8-19.7 15l3.3-3.2q-8.6 6-17.7 11.1c7.7-8 20.1-13.7 12.4-11.1 5.7-4 11.3-8.2 16.8-12.4-7.2 4 1.7-2.8-4.6 0.7-8.5 6.2-6.7 6.2-14.7 11 18.9-14.6-6.3 1.8-15.9 4.7 0.9 0.6 1.1 1.4 11.6-4.6 0.2 0.9-9.2 6.3-9.6 7.3 3.5-1.7 7-3.6 10.5-5.5l-11.5 8.5c3.6-1.4 7.2-3 10.6-4.7-13.4 10-0.3 3.1-14.8 13.2 6.7-3-1.5 5.9 12.2-4.1-6.5 7.8-10.5 6.6-10.8 8.8 15.7-3.1 18.3 2.4 22.9 11.7l-4.4 6.1c4.5-6.1 8.3-11 11.3-15.7-5.8 12.2-6.1 30.8 4.8 8-0.3 1.4-1.9 4.7-2.8 6.4 3.3-2 3.2 16.8 8.8 15.2 6.4-25.7 4.6 17.6 10.7-18.1l-1.6 7.3c0.1-10.1 4.6-24.7 5.3-33.6-1.1 23.5-1.6 18-1.8 39.7-0.4-2.8-0.7-5.6-1-8.3l-1.2 19.4c4.9-24.6 5.8-19 8.4-11.6 2.2 7.4 5.6 16.3 5.8-1.9 0 1.9 0.3 5.1 0.2 6.9 3.6 10.7 2.6-14 2.7-20.6 1.7 9.6 1.5 15.7 1.5 23.3 6.3 6.9 6.7-20.4 14.8-6.9-2.7-12.9-5.9-16.5-7.8-26.3 2 3.2 6.6 12.7 7.3 19.5 5.8 10.9 8 5.7 9.2 0.5 1.4-5.4 1.8-10.5 10.2-2.7-5.5-13.8-10.3-18.2-13.2-28 4.8 8.1 20 24.9 18.3 27.5l5.6 8.5c5.5-1.4 14.9-4.6-4-26.8 15.2 14.9 3.4 2.4 13 8.9-1.2-2.2-2.4-2.1-3.6-2.9-12.1-13.7 2.3-1.4 1.1-4.3l2.5 2.8c-2.5-3.8-5.2-7.5-8-11 2.5 1.3 6.2 3.2 11.4 7.1l-11.8-9.1c0.9-1.3 15.7 10.8 13.9 6.5l-9.3-6.1c6.4 2.8-5.2-7.6 8.4 1 2.7 1.7 1.4 1.2 1.6 1.9 20.4 9.9-3-9.1 7.3-6.3-7.2-3.5-14.4-7-21.6-10.6-5.8-5.3 5 1.1 12.5 4.9 0.6-1.6 7.9 1.5 11.3 0.2-5.1-3.6-7.9-4.1-14.2-7.1 2.1 0.1 4.1 0.1 6.2 0.1 3.9 2 7.8 4.2 11.6 6.4-15.4-8.5-13.9-9.7-12-11.4 1.9-1.5 4.2-3.2-11.2-8 6.9 0.4 13.8 4.5 17.9 4.8 8-0.4 3-4.5-2.1-7.6-5-3.2-9.9-5.4-0.9-6.4 17.5-5.4 0.6-12.4 11-20.3l-6.4 1.2c1.4-1.8 2.8-3.8 4.1-5.8-14.3 2-8.7-2.8-25.2 0.6 4.9-1.4 12.3-4.1 16-4.8-2.5-1.4-9.7-0.7-2.1-4.8l5.4-1.4c2-5.7-1-12.6-12.7-8.4-2-0.5 8-6.4 14.4-10.9-1-2.9-7.7-1.1-17.3 3.3 1.9-2 3.7-4.1 8.1-8.3-4.4 2.9-8.8 5.8-13.1 8.8 1.1-2.2 10-8.2 12.7-11.5-17.1 8.6-7.5-5.5-11-7.2l-5.1 6c-4.9 3.8 0.7-5.9 7.1-10.9 0.7-11.8-22.3 13.4-25.1 7 13.2-25.5-9.2 4.4 3.8-24.6-6.6 6-4.2-6.8-12.9 9.9 1-3.1 1.2-4.4 1.9-4.8 2.7-11.7-5.3-4.8-10.1 2.4l2.1-9.4c-6.1 20-9.9 13.2-13.7 33.8 0.4-4.6 1.7-8.7 2.6-12.3 1.2-19.8-3.8 9.1-4.7 4.4 0.6-5.1 0.5-11 1.3-14.8-2.6-11.7-8.1-7.7-12.3-2.6-4.5 5.1-7.2 11.3-13.2 4.8-2.5-0.2 6.1 21.2 3.3 20.3-3.7-10-4.3-21-7.5-24.8 2.2 13 1.1 10.5-1.1 9.9-1.9-6.7-3.8-10.9-3.8-16-4.5-7.8 0.7 17.2-8.1 2.2 2.7 5.9 3.7 9.5 4.8 13.1 5.3 17.7-15.5-12.8-11.3-3.4 0 0 0.3 3.1 2.4 4.5-1.3 0.3-4.5-1.4-9.7-10.2 2.3 5.2 6.6 13 6.4 14.4l-6.2-10.4c0.9 2.5 4.6 9.3 5 10.8l4.9 5.6c-7-7.4 5.3 13.7-8.5-4.9l0.1-0.7c-2.8-2.2-5.7-4.4-8.7-6.4 4.8 8.1 10.1 15.8 6.7 14.6-16.6-17.4-7.2-0.4-10.3-0.7l-6-5.8c7.1 9.5 0.2 9.6 3.9 11.6-1 1.4-7.2-0.1-12.6-5.3 2.7 4.1 0.6 7 11.9 15.2-6.1-2.9-12.3-5.6-18.7-8 24.7 16.5-12.8 0.9 15 15.7-5.1-0.8-11.3-4.2-16.8-5.4 13 8.9 9.9 9.5 6.6 11l-3.1-1.1c-3.3 1.7 10.9 9.3 11.8 12.2-7.8-1.7-15.6-3.4-23.5-5 2.8 2.9 21 7 15.7 7.6-3.7-0.3-4.9-0.9-6.1-1.6 4.4 2.5-2 3.6-8 4.3 16.8 4.7 10.3 6 28.8 8.9-21.2 0.8-9.3-3.1-29.1-2.7-11.5 3.5 0.4 8.8 11.1 11.7-4.5 0.7-8.3 0.5-13.4 0.7 0 0 14.6 1.3 31.9 0.6 17.3-0.6 37.3-3.5 48.5-5.4 15.7-2.1 24.7-4.5 37.9-5.4-9.1 1.8-20.4 3-2.9 1.8l-16.6 1.3c-7.7 0.9 34.2-2.3 33.8 0.3l-5.5-0.5c-1 0.5-11.7 0.7-6.3 1.1 4.6 0.2 7 0 10.7-0.2-7.5 0.6-15.2 0.9-22.6 0.7 9.7 0.7 14.8 1 22.2 1-0.8 1.7-30.4-2.1-23.9-0.5 7.3 1 10.2 1.1 15.7 1.3 14.1 2.4 1 2.1-8 1 14.6 2.6 13 1.4 22.3 4.1-7.6-1.6-20.4-3.8-22-3.7 14.8 2.5 7.8 1.9 11.3 3.3-5-1.3-11.9-2.7-14.5-3.2-2.3-0.4 3.4 1.2 2.4 1.2-4.7-1.4-9.4-2.7-14.2-3.9-13.7-3.3 7.4 2.1 13.2 4.8 2.6 0.8 4.5 1.3 5.3 1.4 5.7 2.3 16.5 7.7 4 4.1l1.8 0.6c-14.2-4.3-23.1-9.2-36-14.5 2.8 1.3 44.2 20.3 27.9 14-11.3-6.1-27.6-13.5-32.1-17.1 8.2 5 16.6 9.8 25.1 14.2 0.1 0.4-7-3.4-4.5-1.8l-5.5-3.4c-20.9-12.9 2.8 2.1-9.7-6.2 27.7 18.8 22.7 14.8 50.7 32.8-16-8.7-30.1-18.1-27.8-15.3q10.4 7.5 21.3 14.4c2.6 6.2-28.5-15.8-43.2-31.7 13.7 13.3 18.2 18.3 30.3 29.4-1.4-0.5-2.8-1-4.2-1.6 4.9 5 9.8 9.9 14.8 14.7-15.6-14.8-6.1-3.5-24.5-24.3 2.6 2.7 4.7 5.1 4.3 4.3-5.7-6.1-17.3-18.7-16.5-17.8 4.3 5.4 7 8.1 12.1 14.1-7.5-8.3 4.1 5.5-1.3-0.4-2.4-3.2-4.8-6.3-7.3-9.4-10-12.2-0.6-0.4-5.5-6.6 4.1 5.4 9.9 12.7 15.6 20.5l-1.2-1.7c-0.9-0.5-7.7-9.5-2.5-1.9 4.3 6 8.7 12 13.2 17.9q-5.1-6.5-9.9-12.9c1.4 2.3 5.6 9 8.4 12.2 5.5 12.6-26.4-39.7-16.5-21.9 4.2 7.2 7.4 11.9 5.2 7.4 7.2 11.3 11.4 18 13 22.8 0.5 0.9 0.9 1.4 1.3 2.1-0.4 1-2.7 3.5-9.8-9.6z"/>
	<path id="Layer" fill-rule="evenodd" class="s6" d="m863.3 681.2q-0.1 0.1-0.1 0.1 0 0 0.1-0.1zm8.6-14.2q0.7-1.3 1.4-2.8c-4.6 7.8 1.1-3.1-5.9 10 4.4-8.8 2.8-5.5 5.7-12-3.5 7.2-4 6.9-8 15.7 4.5-10.1 6.2-12.1 10.7-22.6-3.5 6.4-5 8.7-9.6 19.6 0.9-2.4 2.4-6.2 2.7-7.6 0 0 0.8-1.7 1.1-2.6-3.2 7.3-1.3-0.6-5.6 13.2 4.9-16.4 0-2.1 4.3-17.5-0.4 0.5-2.4 7.5-3.1 10.6 2.9-13.1 0.3-3.4 1.5-11.2-1.5 7.3-1.4 4.8-2.2 9.1 0.2-1.6 0.6-3.9 1.1-7.5-1.1 5.4-0.2 0.2 0.2-6.2-0.9 4-1.1 10.2-2 16.4 0.1-3.1 0.9-8.5 1.4-14-0.7 4.4-1.3 8.9-1.7 13.4 0.1-1.3 0.2-3.8 0.4-7.5-0.1 0.8-0.2 1.8-0.3 2.7l0.2-6.7-0.8 8.6c-0.4-10-0.5-24.4-0.2-38.5l0.8-2.5c0-4.8-0.6-7.5-1-7.8-0.5-3.2 1.8-15.2 3.3-17 3.5 1.2-0.1 16.5 1.6 20.1 1-2.7 2.1-5.3 3.3-7.9l-0.5 4.8c0 3.2 0.8-2 1.1-3.1-1.1 7 1.7 2.6 2.6 3.9l0.7-6.1c6.3-13.8 1.3 16.3 5 9.2 1.4-3.3 3-6.5 4.6-9.7l-2.4 8.8c2.5-4.9 5-11.5 5.6-7.9-0.9 16.6 12.9 2 12.8 14q0.2-0.3 0.4-0.6c-5.5 14.3 22.3-15.1 15.1 1.2l-2.7 2.2c3 0.4-2.5 2.2-5 6.9 8.2-7.6 8.3-3.8 12.4-5.4-1.9 1.4-2 0.8-3.5 1.6-1.7 1.8-6.6 6.3-4.6 5.4 13.2-9.4 14.3-5.1 19.9-5.6-5.7 4.5-9.8 10-19.4 17.1 2.3-1.2 7.3-3.8 12.2-6.3-3.5 3.2-0.1 1.8 4 0.3-0.5-0.6-1.1-1.1-1.6-1.5l0.7-0.3c-0.5 0.2-0.7 0.1-1 0.1-0.5-0.3-1-0.3-1.3 0 5.3-4.6 4.8-2.9 11.9-7.4 0.2 1 3.9 1.3-1.6 4.7 0.3 0.5-0.4 1.3-1.2 2.4 1.3-0.3 2.1-0.2 1.6 0.5l-0.9 0.2c-1 0.6-1.7 1.1-2.3 1.5-2.5 3.2 10-0.2 16.2-0.8-10.4 2.9-10.9 5.3-18 8.2 0.5-0.3 0.2-2-0.5-3.8-0.7 0.5-1.9 1.2-4.4 2.5-6.9 5 8-0.3 3.6 4.5-0.9 0.2-2.7 0.5-5.3 1.7-1.7 1.6 4.3 0.1 8.8-1.3-7 3-11.7 6.4-8.2 6.1 6.3-1.2 9-2.1 8.8-0.4l-5.4 0.9c-3.8 2.8 7.2-0.5 4.5 1.6 0.7-0.7-4 0.6-4.9 1.2 3.3 1 6.2 0.3 17.1-0.4l-8.3 1.4c5 0.5 14.7 2.3 6.6 4 14.8-2.4 8 3.5 7.6 5-0.5-0.5-4.2-0.3-6.1-0.2 11.7 2.7 0.8 7.1 0.7 10.2h-12.8c0.4 1.4 25.6 3.7 24.9 6l-6.1-1.3c1.7 3.9 0.3 5.4-2.3 8l-8.4-1.6c3.8 1.7 3.6 2.9 7.2 4.8-20.6-3.2 8 12.7-15.6 8.9l14.8 6.2c-0.8 1.5 1 4.9-10.2 0.6l0.4-0.2c-11.1-5.3-0.9 1.2-3.8 1 0.9 1.2 7.6 5.6 10.1 6.1-9.1 0.1-5.7 10.4-19.1 4 2 6.2 9.3 17.2 4.4 20l-1.3-1.4c-2.7-0.2-8.2-1.2-17.1-11.1 0.2 4.1 10 19.9 2.9 17.7l-2.3-4.6c-2.3-1.6 0.1 4.5 0.6 6.1-0.5 0-1.8-2.3-2.8-3.9-3.3-3.2 0.3 3 0.3 4.6l-2.2-4c-7.3-6.2-2.4 11.9-7.8 11.9 0.2-1.6-2.3-6-3.5-7.8 4.8 14.3-1.6 13-2.2 16.8l-0.9-5.9c-0.4 10.5-7.7-13.7-7.9-3.5l4.3 7.6c-2.1-2.1-2.5 1-0.4 7.3-3-4.2-3.3-10.9-6-11.6-1-4 1-3.1-1.1-8.2-1.9-3.4-3.7-6.7-5.3-10.1-0.3-1.1-0.7-1.3-1.3 0 3.8 18.2-2.2 1.4 2.6 18.9-4.8 2.2-9.5-9.6-12.8-0.9-1.9-17.8-7.5-0.7-6.1-23.9-1.6-0.3-3.2 4.3-5.5 13.4 0.2 1.9 1-0.9 1.5-2-1.1 5.8-3.8 6.4-4.8 6.1 2.2-5 4.8-9.2 6.4-18-1.5 2.1-4.9 10.3-6.5 13l1.6-11.9c-2.9 8.4 0.9-9.6-2.7 1.7l-0.5 3.6c-2.2-1.4-5 10.2-8.2 10.9l1.4-4.5c-0.2-2-5 8.3-2.5-2.3l1.7 0.1c2.3-8 2.4-11.9 3.3-16-2 1.6-5 12.7-6.1 13.5 2.3-7.5 1.3-4 4.4-11.1-2.5 2.1-5.8 4.4-11.2 12.9 0.4-1.1 1.2-2.7 1.2-2.7-1.1-2.1-9.3 9.7-7.5 3.1l0.9-0.8c4.2-10.8-9.4 7.1 0.4-10 1.3-3.5 1 1.5 5-7.4 1.6-6.1-9.7 12.8-8.8 7.7 0 0.2 0.6-0.8 1.5-2-1.4-0.4-4.1-0.1-6.7 0.5 8.6-13.4-7.6-1.3 3.7-16.2-4.1 5-5.7 5.1-7.7 6.9 0.3-0.3 1.3-1.2 1.9-1.9-0.2-0.9-4.8 3.3-6.9 4.9 3.7-4.4-6.2 2.3-3.8-0.6-3.1 2.7-2.8 1.4-3.3 0.7 4.7-1.7 7.1-5.3 12.5-9.1 0.3-2.8-15.7 9.7-14.8 5.5l5.5-5.8c-9.8 6.8-7.4 1.9-11 4.5 2.8-2.5 4.3-4.2 9.3-7.4-3 0.7 1.5-3.7-4.8-0.4l-2.1 2.5c2.3-4.8-13.8 1.6-7.9-4.6l16.1-7.9c6-4.3-10.1 1.7-0.7-3.8-5.4 2.7-3.7 2.1-9.5 3.5-1 1.1 3.8 0.2 4.1 1.1-3.5 0.9-7 1.6-10.6 2.3l6.1 1.1c-7 1.7-5.4 0.9-11.7 4.6-6.3 0.1 6.7-5.7-0.5-5.1 2-1.6 8.3-3.3 11.4-5.4-5.6 0.3 6.2-5.1 4.3-5.6 0.5-0.1 1.1-0.3 2.1-0.6-2-0.4-1.5-1.3-6.7-0.1l-1.7 1.5c0.3-0.9-6.8 1-3.2-1.8-4.2 0.2-13 1.7-12.8 2.9-1.3-0.2 3.2-2.5 8.5-3.4-0.4-2.6-19 3-11.3-1.7 0.5 0.1 1.5 0.1 2.5-0.2 0.7-0.6 1-1.1 0.7-1.4 3.4 0.7 12.9-3.4 10.5-0.5 9.2-2.2 1.6-2.2 5-3.7-6.6-0.2-13.6 2.1-18.3 2.2 2.9-0.4 2.9-1 4-1.9l-7 1.8c0-0.7-0.1-1.2-1.6-1.7l2.7 0.8c1.1-1.7 12.1-4.8 5.1-6.3 3 0.4 8.9 0.8 12.5-0.8-4.7-1.7 3-0.7 8.4-2.2-1.6-1.8-12.8 0.3-8.5-2.9 0-0.4-4.2 0-6.2 0.4 3.2-2.1-1.2-3.4 3.1-5.3-1.8 0.7-4.1 1.2-7.2-0.2 5.9 0.8 5.7-1.6 9.4-2.1l-3.6-0.5c3.9-0.3 5.4 0.5 6.7 1.1-1.2-0.1-2.4 0-2.1 0.4 2.9 1.2 16.6 1.4 18 0.4-3.4-1.6-12.9-2.4-16.5-2.4 4-1.7-16.1-4-10.2-5.8 0.1-0.6 14.7 0 16.2-1-7.9-2.5-6.3 0.7-13.1-1.5 20.5 1.8-11-8.7 2-9.5l9.5 3.4c0.9-0.5 1.8-1 1-2.2l-5.6-0.6c-1.9-1.5 0.6-2.7 7.6 0.5-7.1-4.4-2.4-3.3 0.5-3.7-1.3 1.3-1.3-0.5 3.1 2.6 5.2 0.3 2.2-1 0.6-3 3.2 1.7 8.4 3.4 8.6 3.1-5.4-3.6-3.5-4.7-5.7-7.6l2.6 1.5c-1.8-4.2 11 1.2 5.1-5.6l-0.2-0.3-0.6-0.2c-8.3-4.8-4.2-5.6-6.8-8.7 2 1.4 5.3 3.9 5.6 3.6-7-5.6-3-3.7-5.9-6.7 3 1.3 8.1 7 8.8 5.6-0.2-0.9-3.6-4.1-6.2-6.3 3.6 2.8 6.9 4.4 8.2 4.6 1.5 1.8-1 0.1-0.7 0.6 3.4 3.3 2.5 1.8 6.9 5.9 0.9 0-5.9-5.9-3.1-4.4l4.6 5.4c1.3 0.8 0.1-0.7-0.5-1.5 1.4 1.8 6.2 6.3 9 9-2.7-4.7-13.3-13.6-18.9-19 5.3 2.5 0-5.2 1.1-6.8l5.3 6.4c-0.3-1.4-1.2-3.1-3.3-6l0.9-0.9c1.3 2.7 2.8 4.9 7.1 10-0.6-2.6 1.9-1.7-4.6-10.8l1.1 1.5c3.8 2.1 7.8 2.2 9.7 5.4-0.6-3.9 4.4 0.6-1.1-9-0.2-3 9 11.3 3.3-1.3 4.4 6 1.3 2.7 4.8 10.1 4.1 6.1-2.9-11.1 4.1 3.1-1-4.9-1.6-2.8-4.2-9.4 6.3 13.3 3.2 1.1 7.4 8.6-1.6-5.8-1.8-3.3-3.2-9.5 1.3 3.5 2 4 2.3 4.2l-2.9-8.8c3 7 5.9 14.1 8.6 21.2-2-10.8-5.5-14.9-4.4-19.7l0.1 0.8c3.3 9-0.1-7.4 3.6-0.8-1.1-1.6 0.7 4.4 1.2 7v-3.9c0.1 0.5 0.2 1.1 0.5 2.1 2.3 6.6-0.1-3.9 2.1 2-0.2 2 1.4 8.8 2.3 12-0.3-3.4-0.6-6.9-0.8-10.4l1.8 12.5c0.8 0.9-0.1-19.3 2.6-2.2l-0.2 2c0.4 2.9 1.7 12.1 1.5 5.6 0-1.2-0.4-6.1-0.6-7.8l0.6 2.3c0.4 8.1-0.2 10.7-0.3 13-0.3-3.3-0.2-6-1-11.1-0.3 2.7 0 8.3 0.1 11-0.5-3.3-1.2-8.6-1.6-11.8-1.4-4.2 0.5 5.6 0.2 6.4-0.8-3.2-1.3-5.3-1.7-7.9 0 3.4-0.2 4.4-1.9 0.3 0 0-0.5-6.1-2.1-10.6-0.5 5.2 1.8 14.9 2.5 20.6 3.6 13.5-5.3-7.2-2.4 2.6 1.5 3.4 3 5.8 3.6 8.1-2.9-6.8-2.2-4.2-3.4-6.9 4 10-1.8-1.8 1.1 5-1-2.3-2.6-4.7-4-6.9-3.9-7.7-2.8-3.5-6.7-13 3.5 9.1-4.2-2.5 5.4 14.9l1.5 2.1-3.1-3.2 0.1 0.2c-1.1-1 0.2 0.9-5.7-6.5-1-2.1-0.6-2.3-1.6-4.4-5.2-6.3 2.6 6.5 2.4 7.2-3.9-5.4-0.7-2.3-5.6-8.8-1.1-0.5 1.3 3.7 2.1 5.5l-2.2-3c-6.4-5.7 10.8 14.6 2.3 5.4 1.4 1.7 2.8 3.6 4.2 5.2-2.7-2.9-7.6-7.3-9.9-11.5-0.4 0.4 1.2 3.3 3.8 6.5 3.8 3.9 2 1.8 6.7 7l1.6 3.7c-0.1 0-2.3-2.7-2.2-2.9-15-12.2 8.7 12-7.5 0.5 3.3 2.4 3 2.6 5.8 5-1.9-0.7-1.1 0.8-4.5-0.8l-3.3-2.5c3.3 4.3 8.6 8.2 5.9 7.6 1.3 0.8-3.5-1.9-5.5-3.1 3.7 2.6-15.5-5.9-1.9 1l1.2 0.3c-3.3 0.3 6.9 6.3 8.6 7.7-9.3-2.8-0.8-1-11.6-4.5-4-0.1 3.5 3.3 0.1 3.5-1.1-0.4-2.2-0.7-2.8-0.9-6.4-0.3 9.3 2.2 7.7 2.7-4.6-1.1-5.8-1.3-8.3-1.5l7.4 1.9c-0.9-0.2-4.6-0.9-7.2-1.6 6.7 1.9 1.6 2 10.1 3.7-2.4-0.2-11.1-1.8-14.7-2.2-2.9 0.2 0.7 1.2 4.3 2-6.7-0.3-5.7 1-6.9 0.6-3.2 1 5.3 0.7 11.1 1.8l4.3-0.4 2.1 1.2-4.7-0.7c-3.7 0.4 4.5 1.3 4.3 1.8l5.5-0.2 3.4 0.5c-11.3 0.1-2.5 0.7-15.6 0.7-5.3 1.7 8 1.8 10 2.2-0.5 0-2.4 0.3-3.9 0.5-2.3 1 3.5 0.5 9.3-0.3-3.5 0.6-4.6 0.7-7.6 1.2-0.1 0.7 6.3-0.7 9.8-0.9-4.6 0.9-7 1.4-8.1 1.9 4-0.9 6.9-1.4 8.1-1.6-22 4.5-8.7 3-26 7 4.5-1 13.6-2.1 21.9-4.8 7.2-1.5 1 1.5 6.5 0.1-2.2 1-6.1 2.2-7.7 3.2-2.4 2.4 8.3-1.9 13.4-4.6-12.4 7.2-2.1 0.5-14.2 6.8 3.4-0.4 8.3-1.9 14.6-5.9-15.9 12.6 5.4-3.8-4.2 4.8 4.5-3.9 6.2-5.3 6.4-5.3-4.2 3.9-4.2 4.2-7.2 7 4.8-4.1 6.9-5.9-1.8 3.6 8.2-8.9-0.3 1.3 5.9-5.5-2.9 4.1 2.2-1.8 0 1.6 3.6-5 3.3-4.4 3.7-4.7q-0.4 0.5-0.8 1.1c-3.9 6.1 3.8-5.1 1.5-1.5-1.5 2.6-4.1 6.5-4.3 7.2 3.2-5 6.8-10.9 3.4-4.4 0-0.1-1.4 2.5-2.6 4.5 5.3-8.8 1.4 3 5.9-8.1l-3.1 9.6c-2.2 10 2.3-6.2 4-12.3-1 5.9 0 16.6 1.5 10.7 0-3-0.2-3.6-0.4-7.8 0.1 1.2 0.6 9.6 0.4 4.3l-0.4-5.4c2.1 14.5-1.1-9.8 3.6 12.6-1.6-8.6 3.1 5.7-0.2-7 1.9 4.4 2.8 8.9 3.6 10-0.6-2.8-1.3-5.5-2.2-8.1-5.7-13.3 9.9 16 5.9 5l0.4 0.7c1.9 3.2 4.6 6.9 4.1 5.7-1.3-2.3-2.2-3.4-4-6-2.5-5.7-2.9-6.1-3.1-7.4 3.2 4.6 3.1 3.7 8.1 9.7-3-4.1-5.1-6.2-7.5-9.7-0.2-0.8 4.7 3.8 7.1 5.3-4.7-5.1-3.2-3.9-9.4-9.8-0.2-0.6-2.2-2.5-2.4-2.9-3.2-2.5 6.2 4.2 1.9 1 3 2.2 4.3 3.1 6.7 4.8l-2.6-2.2c2.6 1.8 10.8 7.7 12 8-1.7-1.3-2.8-2.1-3.6-2.6l2.6 1.7c-0.7-0.9-10.1-6.9-12.7-8.4 0.4-0.4-3.5-2.9-2-2.4l5.8 2.9c-2.1-1.3-1.9-1.4 3.4 0.5-1.8-0.8-4.9-2.1-6.9-2.9-8.1-3.4 9.9 3.8 1.1 0.1 2.2 0.9 3.4 1.5 6.9 2.9-2.4-1.3-4.8-2.4-7.2-3.4 4.5 1.7 14.9 4.1 11 2.4-2.6-0.7-6.2-1.5-6.7-1.6l-2.3-0.8 10.9 2.6-9.4-2.7 9.1 2.1c-1.7-0.8-13.4-3.3-12.6-3.2 5.9 0.5 9.1 1.2 18 1.5-17.7-2 0.8-1.3-12-2.4 13.5-0.3 5.2-2.2 9-3.7h1.6c8.2-1.7-13.5 0.9-10 0.1l2.6-0.3c8.8-2.2 1.2-2.5-5.8-0.8 2.7-0.7 6.8-2 6.2-2-3.4 0.9-12 3.7-8.8 2.5 1.7-0.5 5.4-1.7 5.5-1.8l-8.6 2.5c5.8-2.2 11.1-6.1 6.1-4.5 2.8-1.5 5.7-2.9 8.4-4.3-2.1-0.1-9 3.2-10.5 3.7l8.5-5.8c-0.3-0.4-13 8.8-5.8 3.2 1-0.9 0.7-0.2 4.5-2.7 5.8-5.2-8.5 5.5-7.8 4.5l9.3-7c5-4.8-5.3 3.2-10.6 7.5-10.6 8.8 16.6-14.9 8.1-9.1-4.2 3.9-6 5.9-10.2 9.8 1.8-2.4-4 3.6-2.1 1.2 11.3-13.2 0.2 0.2 10.7-12.2l-2.2 3.3c5.8-7 1.9-1.3 9-8.8 1.6-2.6-5 3.2-7.5 5.5 5.1-5.9 1.1-0.2 7.8-8.3l-2.3 2.1c1.5-1.7 3.4-3.9 3.5-3.6 4.7-5.6-0.1-0.7-0.5-0.8-2.6 3.1-6.3 7.5-9.8 11.9l1.7-2.2c-7.5 8.4-2.8 1.3-8.3 8.3 1.4-1.8 1.8-2.4 2.8-3.9 0-0.6-6 7.8-7.6 10.3q0.4-0.7 0.9-1.5c0.7-1 1.4-2.1 2.2-3.2-0.2 0.1 0.3-0.6 1.1-2 2.3-3.7 4.3-6.8 2.9-5.3q-0.2 0.3-0.3 0.5zm2.5 12.5q0.6-0.2 1.2-0.3-0.7 0.2-1.2 0.3zm6.1 15.1c-1.4-0.9-1.9-1.1-5-3.3zm-11.4-6.9l-2.3-1.8q0 0 0 0.1c0.4 0.3 1.2 0.9 2.3 1.7zm-1.2 8.3l-0.3-0.7q0 0.1 0 0.1 0.1 0.3 0.3 0.6zm-5.7-12c0.1-0.3-0.2 0.6-0.6 2.2q0.2-1.3 0.6-2.2zm-3.6 4.8c-0.6 0.8-0.8 1.1-0.9 1.2 0.3-0.5 0.6-0.9 0.9-1.2zm-11 10.3q0.2-0.2 0.4-0.5-0.2 0.3-0.4 0.5zm2-4.8q0.6-0.5 1.1-0.9-0.6 0.4-1.1 0.9zm-7.4-5.4q0 0 0.1 0 0 0-0.1 0 0 0 0 0zm0.1 0q0.5-0.2 1.1-0.4l-1.7 0.3c6-1.7 3.6-0.8 4.1-0.8-1 0.2-2.3 0.6-3.5 0.9zm-3.3-2.9q-0.1 0-0.2 0 0.2 0 0.2 0zm-15.5-11.6c0.5 0.2 1.2 0.4 2 0.6q-0.8-0.3-2-0.6zm8.2-8.6q0.2 0.2 0.7 0.5-0.3-0.2-0.7-0.5zm0.8-6.8q0.7 0.6 1.4 1.1-0.6-0.5-1.4-1.1zm8.4-18.8q0.4 1.1 0.8 2.1-0.3-0.9-0.8-2.1zm17.6 0.3c0-0.1 0.1 0.2 0.1 0.6zm-36.2 3.1q0.1 0.1 0.3 0.3-0.2-0.1-0.3-0.3zm-36.2 35.2q-0.3 0.1-0.5 0.2 0.3-0.1 0.5-0.2zm-18 16.4q0.2 0.1 0.4 0.1zm6.9 3.5q0.6 0.2 0.8 0.4-0.5-0.1-0.8-0.4zm21.5 5.2q-0.6 0.1-1.4 0.3c0.7-0.4 1-0.3 1.4-0.3zm17.4 27.1q0.1-0.1 0.1-0.1-0.1 0.1-0.1 0.1zm9.4 10.4q-0.1 0.1-0.1 0.2 0 0 0.1-0.2zm119.2-70.3q1-0.2 1.9-0.3-0.9 0.1-1.9 0.3zm-9-6.2q0.2-0.1 0.3-0.2-0.1 0.1-0.3 0.2zm-1.6-12q0 0 0.1 0-0.1 0-0.1 0zm-5.8-9.3q0-0.1 0.1-0.1-0.1 0-0.1 0.1zm-23.7-18.8c-0.5 1.2-0.7 1.8-1.4 3q0.5-1.3 1.4-3zm-38.4 41.5q0-0.1 0-0.1zm0 0c-0.3 3.1-0.5 5.3-0.4 0.4zm4.9 0.9q0 0 0 0.1-0.1 0 0-0.1zm0.1 5.4q-0.4 0.5-0.8 1.1c0.1-0.1 0.3-0.4 0.8-1.1zm-5.7 8.5c0.7-1.1 5.5-9.1 8.5-14.1-0.9 1.9-1.9 3.6-2.5 4.8-1.1 1.7-2.3 3.6-3.3 5.2-1.4 2-2.4 3.7-2.7 4.1zm17.9 13.9l-0.7-0.5q0.3 0.2 0.7 0.5zm-83.6 8.9c-0.5 0-0.8 0-1.1 0q0.9-0.1 1.1 0zm95.3-35.5c0.1-0.2-2.7 1.1-5.3 2.4 0.1 0.2 0.1 0.4-0.1 0.7 2.2-1.3 3.6-2.3 5.4-3.1zm-6.8 1.9l0.5 0.1 0.2-0.1c-0.4 0-0.6 0-0.7 0zm47.3-29.2l0.9-0.5c0.7 0.1 1.1 0.2 1.4 0.4 1.5-0.9 2.8-1.9 1.4-1.9-1 0.5-2.3 1.2-3.7 2z"/>
	<path id="Layer" fill-rule="evenodd" class="s7" d="m-39.1 141.7c1.5-1.5 2.4-2.5 2.4-2.4 0.1 0.1-0.9 1.1-2.4 2.4zm-6.2 6.5c-0.9 1-2 2.3-3.1 3.6 5.5-5.9-1.5 2.4 7.1-7.5-5.6 6.7-3.5 4.2-7.3 9.2 4.5-5.6 4.8-5.2 10-12-5.8 7.8-7.6 9.1-13.6 17.3 4.3-4.9 6.1-6.5 12.2-15-1.4 2-3.4 5-3.9 6-0.2 0.3-1 1.4-1.4 2 4.3-5.7 1 0.7 7.5-10.3-7.5 13.1-0.4 1.8-7.2 14.2 0.5-0.3 3.1-5 4.5-7.8-4.6 9.7-0.7 2.3-3.2 8.7 2.7-6 2.2-3.9 3.7-7.4-0.5 1.3-1.3 3.2-2.4 6.2 2-4.4 0.2-0.2-1.4 5.3 1.6-3.3 3-8.6 5-13.7-0.7 2.7-2.4 7.2-3.9 11.8 1.5-3.7 2.8-7.4 4.1-11.2-0.3 1.1-0.9 3.3-1.8 6.4 1.2-3.3 2.5-8.1 1.2-2.6l-0.4 0.3-1.5 5.8 2.4-7.2c-1.6 8.7-4.3 21.1-7.4 33.2l-1.2 2c-1 4.1-1 6.6-0.7 6.9-0.2 2.9-4.5 12.8-6.2 14-2.7-1.7 3.4-14.2 2.6-17.6-1.4 2.2-2.9 4.2-4.4 6.2l1.4-4c0.6-2.8-1.2 1.5-1.6 2.4 2.4-5.8-0.9-2.6-1.4-3.9l-1.8 5.2c-8.1 10.7 2.1-14.3-2.5-8.9l-5.9 7.4 3.8-7.1c-3.1 3.7-6.6 8.9-6.4 5.7 4-14.1-10.8-4.3-8.3-14.6q-0.3 0.3-0.6 0.5c7.9-11.4-22.2 8.6-12.7-4.1l2.7-1.4c-2.5-1 2.6-1.4 5.7-5-8.5 4.9-7.9 1.6-11.7 2.2 2-0.7 2-0.2 3.4-0.6 1.9-1.3 7-4.2 5.1-3.8-13.2 5.5-13.3 1.6-18.2 0.9 5.8-2.7 10.4-6.7 20.1-10.9-2.3 0.6-7.1 1.9-11.8 3 3.8-2.1 0.6-1.6-3.3-1.1 0.4 0.7 0.7 1.3 1.1 1.7l-0.7 0.2c0.4 0 0.5 0.1 0.8 0.1 0.4 0.4 0.7 0.5 1.1 0.3-5.4 2.8-4.7 1.4-11.7 3.9 0-0.9-3.1-1.9 2.3-3.7 0-0.6 0.7-1.1 1.6-1.9-1.2 0-1.9-0.2-1.3-0.7h0.8c1-0.3 1.7-0.6 2.3-0.8 2.8-2.2-8.7-1.8-14.1-2.5 9.5-0.4 10.4-2.4 17-3.6-0.3 0.3-0.4 1.7-0.2 3.4 0.7-0.3 1.9-0.7 4.3-1.3 6.9-3-6.9-1.3-2.2-4.6 0.8 0.1 2.4 0.1 4.9-0.4 1.9-1-3.7-0.9-7.8-0.6 6.7-1.1 11.4-3.1 8.3-3.6-5.6-0.2-8.1 0-7.6-1.4l4.8 0.3c3.8-1.5-6.3-0.9-3.6-2.2-0.6 0.4 3.6 0.3 4.5-0.1-2.6-1.6-5.2-1.6-14.8-3.1l7.5 0.4c-4.2-1.3-12.2-4.9-4.9-4.7-13.2-0.9-6.1-4.6-5.5-5.8 0.3 0.6 3.6 1.1 5.2 1.4-9.6-4.6 0.7-6.2 1.4-8.9l11 2.6c-0.1-1.3-21.4-8.2-20.3-10.1l5 2.4c-0.7-3.7 0.9-4.7 3.6-6.4l7 3c-2.9-2.3-2.5-3.3-5.2-5.6 17.1 6.8-4.3-12.6 15.2-4.6l-11.5-8.2c1-1.1 0.1-4.5 8.9 1.5l-0.4 0.1c8.5 6.7 1.1-0.9 3.5-0.1-0.5-1.2-5.5-6.3-7.5-7.2 7.8 1.7 6.9-7.8 17.2 0.3-0.6-5.8-4.6-16.7 0.1-18.1l0.8 1.4c2.3 0.8 6.8 2.7 12.5 13 0.6-3.6-4.7-19.1 1-15.8l1.1 4.4c1.7 1.8 0.8-4 0.7-5.4 0.4 0.1 1 2.4 1.6 3.9 2.2 3.4 0.4-2.6 0.7-4l1.1 3.9c5 6.8 4.3-9.8 9-8.7-0.5 1.3 0.9 5.6 1.5 7.4-1.3-13.2 3.9-10.8 5.2-14l-0.4 5.2c2.4-8.9 3.9 13.4 6.1 4.6l-2.2-7.4c1.4 2.2 2.4-0.4 1.8-6.2 1.8 4.3 0.7 10 2.9 11.2 0.2 3.7-1.4 2.5-0.6 7.3 1 3.2 1.9 6.5 2.6 9.7 0 1.1 0.3 1.3 1.1 0.3 0.3-16.4 2.2-0.8 1.5-16.8 4.5-1 6.2 10.1 10.8 3.3-1.8 15.7 6.4 2.1 0.6 21.8 1.3 0.5 3.6-3.1 7.4-10.5 0.2-1.6-1.1 0.7-1.7 1.5 2-4.7 4.5-4.7 5.3-4.3-2.9 3.9-6 6.9-9.1 14.2 1.8-1.5 6.3-7.9 8.2-9.9l-3.7 9.9c4.2-6.6-2.6 8.1 2.7-0.9l1.1-3c1.6 1.7 6.3-7.7 9.2-7.7l-2.1 3.6c-0.2 1.8 6-6.1 1.7 2.5l-1.5-0.4c-3.5 6.5-4.4 9.8-6 13.2 2-1 6.8-10 7.9-10.4-3.5 5.9-2 3.1-6 8.6 2.5-1.3 5.9-2.7 12.2-8.9-0.6 0.9-1.6 2.1-1.6 2.1 0.5 2 9.8-6.5 7-1.2l-1 0.5c-5.7 8.4 9.5-4.2-2.3 8.5-1.9 2.8-0.6-1.4-5.8 5.4-2.7 5.1 11.2-9.5 9-4.7 0.2-0.6-0.5 0.2-1.7 1.2 1.2 0.7 3.5 0.9 5.9 0.9-10 9.8 6.3 2.6-6.4 13.2 4.6-3.6 6-3.3 8.2-4.6 0 0-1.3 0.8-2.2 1.4 0 0.8 4.7-2 6.9-2.9-4.1 3.1 5.8-0.7 3.1 1.3 3.2-1.8 2.7-0.7 3 0-4.4 0.6-7.2 3.2-12.6 5.4-0.7 2.3 15.5-5.3 13.9-1.8l-5.9 3.9c9.9-3.9 6.8-0.2 10.4-1.7-2.9 1.5-4.5 2.7-9.5 4.5 2.6 0-2.1 2.9 4 1.3l2.3-1.7c-2.9 3.7 12.2 1.4 5.9 5.6l-15.4 3.6c-6.1 2.5 9 0.5-0.2 3.4 5.2-1.3 3.6-1.2 8.9-1.2 1-0.7-3.3-0.9-3.4-1.7 3.2-0.1 6.4 0 9.6 0.1l-5.1-2.1c6.4-0.1 4.9 0.2 11-1.7 5.4 1.2-6.9 3.6-0.6 4.5-2.1 1-7.8 1.2-10.9 2.4 5.1 0.8-7.1 3.3-4.6 4-0.4 0-1.1 0-2.1 0.1 1.6 0.8 1 1.4 5.7 1.4l1.7-1c-0.4 0.8 6.1 0.5 2.4 2.2 3.7 0.7 11.5 1.1 11.6 0 1 0.4-3.3 1.4-8 1.2-0.1 2.3 17 1.2 9.4 3.7-0.4-0.2-1.3-0.4-2.2-0.3q-1.1 0.6-0.8 1.1c-2.8-1.3-11.8 0.5-9.2-1.6-8.4 0-1.8 1.6-5.1 2.2 5.6 1.4 12.1 0.8 16.2 1.7-2.6-0.2-2.6 0.4-3.8 0.9l6.4-0.1c-0.1 0.5-0.2 1 1.1 1.8l-2.3-1.3c-1.3 1.2-11.4 1.7-5.7 4.4-2.5-0.9-7.5-2.5-10.9-1.8 3.7 2.4-2.7 0-7.7 0.2 1.1 1.9 11.1 2.3 6.8 4.2-0.1 0.2 3.6 0.8 5.4 0.8-3.1 1.1 0.2 3.2-3.7 3.9 1.7-0.2 3.8-0.2 6.1 1.6-4.9-1.9-5.2 0.2-8.5-0.1l3 1.1c-3.4-0.4-4.5-1.5-5.5-2.2 1.1 0.4 2.1 0.5 1.9 0.1-2.2-1.6-14-4.5-15.4-3.9 2.5 2 10.6 4.6 13.7 5.3-3.7 0.7 13.1 6.7 7.7 7.1-0.3 0.6-12.7-2.9-14.2-2.3 6.3 3.7 5.6 0.6 11 3.9-17.3-5.6 7.7 9.7-3.6 7.8l-7.5-4.9c-0.9 0.3-1.7 0.5-1.3 1.7l4.7 1.7c1.3 1.7-1.1 2.3-6.5-1.9 5.2 5.2 1.4 3.3-1.2 3.1 1.4-0.9 1 0.6-2.2-2.9-4.4-1.3-2 0.4-1.1 2.5-2.4-2-6.6-4.5-6.8-4.3 4 4.2 2 4.7 3.4 7.7l-2-1.8c0.7 4-9.2-3.2-5.5 3.8l0.1 0.3 0.5 0.3c6.1 5.8 2.5 5.6 4.1 8.8-1.5-1.6-3.9-4.4-4.2-4.2 4.8 6.3 1.8 3.9 3.7 7-2.4-1.6-5.6-7.6-6.5-6.5 0 0.9 2.3 4.3 4.1 6.7-2.6-3.1-5.1-5.2-6.2-5.6-1-1.9 0.8 0.1 0.7-0.4-2.3-3.5-1.9-2-4.8-6.4-0.7-0.2 3.9 6.3 1.8 4.4l-2.9-5.6c-0.8-0.8-0.4 0.3-0.1 1.1-0.9-2-3.9-6.4-5.8-9.2 1.4 4.6 8.8 14.4 12.5 20.1-4-3.2-1 4.5-2.2 5.6l-3.3-6.6c0 1.3 0.5 2.9 1.7 5.8l-0.9 0.6c-0.6-2.6-1.5-4.8-4.2-10 0 2.2-1.8 1.2 1.2 8.7-2.9-2.5-6.3-3.3-7.3-6.5-0.3 3.5-3.7-1.3-0.9 8-0.4 2.6-5.5-11.5-3.1 0.5-2.6-6-0.7-2.5-2.2-9.6-2.3-6.1 0.3 10.1-2.9-3.5-0.2 4.5 0.8 2.8 1.7 9-2.7-12.7-2.4-1.6-4.6-8.9 0.3 5.3 0.9 3.1 0.9 8.8-0.4-3.3-0.9-3.8-1.1-4.1l0.8 8.2c-1.2-6.6-2.3-13.2-3.2-19.9-0.5 9.7 1.7 14-0.2 17.9l0.1-0.7c-1-8.4-1.3 6.4-3.2 0 0.6 1.6 0.2-4 0.3-6.3l-0.8 3.3c0-0.4 0.1-1 0-1.9-0.6-6.2-0.7 3.3-1.4-2.2 0.6-1.7 0.5-7.9 0.4-10.8-0.4 3-0.9 6.1-1.4 9.1l0.9-11.1c-0.5-0.9-3.7 16.7-2.6 1.4l0.6-1.6c0.2-2.6 0.9-10.7-0.2-5.1-0.2 1-0.9 5.1-1 6.7l-0.1-1.9c1.2-7.1 2.2-9.1 2.8-11.1-0.3 3-1 5.3-1.3 9.8 0.8-2.3 1.6-7.1 2.1-9.5-0.3 3-0.7 7.6-1 10.5 0.4 3.9 0.7-4.9 1.1-5.6 0 3 0.1 4.9-0.1 7.2 0.7-3 1-3.7 1.7 0.1 0 0-0.8 5.3-0.3 9.5 1.4-4.4 1.3-13.2 1.9-18.3-0.4-12.3 3.1 7.2 2.6-1.8-0.6-3.2-1.5-5.6-1.5-7.7 1.1 6.5 1 4 1.5 6.6-1.5-9.4 1.2 2 0-4.5 0.5 2.2 1.3 4.6 2.1 6.8 1.8 7.2 1.7 3.8 3.1 11.8-0.9-7 3 3.2-1.6-13.1l-0.9-2.1 2 3.4-0.1-0.2c0.9 1.1 0.1-0.8 3.7 6.8 0.5 2 0.1 2.1 0.5 4.1 3.1 6.5-1-6.2-0.7-6.7 2.3 5.4 0.2 2.1 3.1 8.7 0.9 0.6-0.4-3.5-0.7-5.2l1.3 3c4.4 6.2-6.4-14.7-0.9-5.1-0.9-1.7-1.7-3.6-2.6-5.3 1.7 3.1 5.1 7.9 6.3 11.9 0.4-0.2-0.4-3-2-6.3-2.5-4.1-1.4-1.9-4.4-7.3l-0.6-3.5c0.2-0.1 1.5 2.8 1.4 2.9 10.8 13.8-6-13.5 7.6 2.3-3.4-4-2.8-3.8-5-6.7 1.4 0.9 1.1-0.6 3.7 1.5l2.3 2.8c-1.9-4.3-5.7-8.8-3.5-7.7-1.1-1 3 2.7 4.3 4-3.6-3.9 12.2 8.1 1.6-0.8l-1-0.5c2.9 0.3-4.7-6.9-5.9-8.4 7.4 4.2 0.5 0.9 9.1 6.1 3.5 0.8-2.3-3.6 0.6-3.1 0.8 0.6 1.8 1.1 2.2 1.4 5.4 1.4-7.6-3.8-6.1-3.9 3.7 1.9 4.7 2.3 6.8 3l-6-3.1c0.9 0.3 4.6 2 6.7 3.1-6.5-3.5-1.4-2.4-8.7-5.6 2 0.7 9.2 3.7 12.2 4.8 2.6 0.3-0.4-1.2-3.3-2.6 5.8 1.7 5.2 0.4 6.1 0.9 3-0.2-4.4-1.6-9.2-3.7l-3.8-0.5-1.6-1.4 3.9 1.5c3.3 0.3-3.6-2-3.3-2.4l-4.8-0.9-2.8-1.1c9.8 2.1 2.3-0.1 13.6 2.5 4.9-0.5-6.4-3-8.1-3.9 0.5 0.1 2.1 0.2 3.4 0.4 2.3-0.4-2.9-1.2-8-1.6 3.1 0.2 4.2 0.3 6.8 0.5 0.2-0.6-5.6-0.6-8.6-1.1 4.2 0.2 6.3 0.2 7.4 0-3.7 0-6.3-0.1-7.3-0.2 19.9 0.4 8.1-0.9 23.8-0.9-4-0.1-12.1-0.9-19.8-0.2-6.6-0.2-0.7-1.5-5.7-1.4 2-0.4 5.6-0.7 7.2-1.2 2.5-1.6-7.5 0-12.5 1.3 12.1-3.8 2-0.1 13.6-3.1-3.1-0.3-7.5 0-13.8 2.2 16.6-7.9-6.6 2.6 5.4-3.8-5.2 2.7-7.2 3.7-7.4 3.7 4.4-2.5 4.4-2.8 7.6-4.6-5 2.6-7.2 3.8 2.6-3-9.4 6.5 0.3-0.9-6.5 3.8 3.3-3-2.2 1.1 0.3-1.4-5 4.5-3.2 2.5-4.6 3.7 0.4-0.4 0.9-0.8 1.4-1.3 4.6-4.5-4.3 3.7-1.6 1 1.8-2 4.8-4.9 5.1-5.4-3.8 3.7-8 8.1-3.8 3.2 0.1 0.1 1.8-1.9 3.2-3.4-6.3 6.5-0.6-2.9-6.7 5.8l4.5-7.6c3.9-8.3-3.5 5.3-6 10 2-4.8 3.3-14.5 0.8-9.7-0.5 2.6-0.5 3.2-1.2 6.8 0.2-1.1 1.4-8.4 0.5-3.8l-0.7 4.7c1.1-13-1 8.7-0.6-11.6-0.3 7.7-1.5-5.6-1.2 6-0.7-4.2-0.6-8.3-1.1-9.4q0 3.6 0.3 7.2c2.4 13-5.3-15.6-4-5.3l-0.2-0.7c-1-3.1-2.5-6.8-2.4-5.7 0.7 2.2 1.3 3.3 2.3 5.9 1 5.5 1.3 5.8 1.2 7-1.9-4.5-2-3.8-5.1-9.9 1.8 4.1 3.2 6.3 4.6 9.8 0.1 0.7-3.2-4.2-5-6 3.1 5.3 2 4 6.2 10.3 0 0.6 1.6 3 1.5 3.1l-1.7-2c6.1 7.2-3.3-3.4 0.2 0.7-2.3-2.5-3.2-3.6-4.9-5.5l1.8 2.4c-1.8-2.1-7.7-8.8-8.7-9.3 1.5 1.9 2.4 2.8 3 3.5l-2.4-2.5c0.4 0.9 7.4 7.9 9.3 9.7-0.4 0.3 2.5 3.2 1.3 2.5l-4.4-3.6c1.5 1.6 1.3 1.6-2.9-1.1 1.4 0.9 3.8 2.7 5.4 3.8 6.3 4.6-7.7-5.3-0.9-0.3-1.8-1.3-2.7-2-5.4-3.9 1.8 1.5 3.6 3 5.5 4.3-3.5-2.3-12.1-6.5-9-4.2 2.1 1.1 5 2.5 5.4 2.7l1.8 1.2-8.9-4.4 7.6 4.2-7.4-3.6c1.3 1.1 10.9 5.5 10.2 5.3-5-1.6-7.6-2.8-15.2-4.8 14.9 5.3-0.9 1 9.9 4.5-11.7-2.4-5 0.9-8.5 1.4l-1.4-0.3c-7.3-0.1 11.9 1.9 8.7 1.9l-2.3-0.3c-7.8 0.1-1.9 1.8 4.3 1.8-2.5 0.1-5.8 0.3-5.3 0.5 3.1-0.1 11.1-0.8 8.1-0.4-1.6 0-5 0.3-5.1 0.4l7.9-0.5c-5.3 0.7-10.7 3-6.1 2.6-2.7 0.8-5.5 1.5-8.1 2.1 1.8 0.5 8.4-0.9 9.8-1.1l-8.5 3.3c0.2 0.4 13.1-5 5.7-1.6-1.1 0.5-0.6 0-4.4 1.4-6 3.4 8.4-3 7.6-2.3l-9.4 4.2c-5.3 3.1 5.2-1.7 10.6-4.4 10.9-5.4-17.3 9.7-8.8 6.3 4.4-2.5 6.4-3.9 10.8-6.4-2.1 1.7 4.1-2.3 2-0.6-12.3 9.2-0.1-0.2-11.6 8.4l2.5-2.4c-6.4 4.9-1.9 0.8-9.5 5.8-1.8 1.9 5-1.8 7.6-3.3-5.5 4.1-0.9-0.1-8.3 5.6l2.4-1.4c-1.7 1.2-3.8 2.7-3.8 2.4-5.1 3.9 0 0.6 0.3 0.8 2.4-1.8 5.7-4.2 8.9-6.8 8.1-5.7 2.7-0.6 8.8-5.5-1.6 1.3-2 1.7-3.2 2.8-0.1 0.5 6.7-5.6 8.6-7.4-0.6 0.6-1.4 1.4-2.2 2.2q-0.6 0.6-1.2 1.1c0.2-0.2 0.3-0.2 0.1 0-3.3 3.3-6.9 6.8-5.2 5.6q1-1 2.1-2.1zm-7.8 3.3l1.9-1.5q-0.9 0.7-1.9 1.5 0 0 0 0zm6.3-12.6q-0.8 0-1.6 0 0.9 0 1.6 0zm-2-14c0.8 0.8 1.4 1.2 3.4 3.5zm10.8 1l0.1 0.7q0-0.1 0-0.3-0.1-0.2-0.1-0.4zm2.5 11.7c-0.1 0.2 0.2-0.4 0.8-1.5q-0.4 0.9-0.8 1.5zm4.2-3.4q0.3-0.2 0.5-0.4-0.3 0.3-0.5 0.4zm11.5-6.6q-0.1 0.1-0.2 0.1 0.1 0 0.2-0.1zm-2.7 3.8q-0.1 0.1-0.3 0.2 0.2-0.1 0.3-0.2zm5.5 6.2q-0.1 0-0.2 0 0.1 0 0.2 0 0 0 0 0zm-0.2 0q-0.4 0.1-0.8 0.1l1.5 0.1c-5.5 0.3-3.3 0-3.7-0.1 0.8 0 1.9 0 3-0.1zm2.3 3q0.1 0.1 0.2 0.1-0.2 0-0.2-0.1zm10.9 13q-0.4-0.2-0.9-0.5 0.4 0.3 0.9 0.5zm-8.6 6q-0.1-0.1-0.3-0.3 0.1 0.1 0.3 0.3zm-13.1 20.1q-0.2-1.5-0.4-2.6 0.1 1 0.4 2.6zm-15-3.8c-0.1 0.1-0.1-0.2 0-0.7zm30.4 18.6l0.6 1.5q-0.4-0.8-0.6-1.5 0 0 0 0zm1.3-14.4c-0.1-0.1-0.2-0.3-0.3-0.6q0.2 0.4 0.3 0.6zm38.6-23.5q0.3 0 0.6-0.1-0.3 0.1-0.6 0.1zm18.9-10.4q-0.2-0.1-0.3-0.1zm-5.2-4.5q-0.5-0.3-0.6-0.5 0.4 0.2 0.6 0.5zm-17.7-8.8q0.6 0.1 1.5 0.1c-0.9 0.3-0.9 0.1-1.5-0.1zm-131.5-0.8q-0.9-0.1-1.7-0.1 0.8 0 1.7 0.1zm6.4 7.2q-0.2 0.1-0.3 0.1 0.1 0 0.3-0.1zm-1.1 10.6q-0.1 0-0.1 0 0 0 0.1 0zm3.1 9.2q-0.1 0-0.2 0.1 0.1-0.1 0.2-0.1zm16.6 20.8c0.6-0.9 0.9-1.4 1.7-2.2q-0.7 1-1.7 2.2zm40.7-32.7q-0.1 0.3-0.3 0.7 0.2-0.4 0.3-0.7zm-3.7 2.7q0 0 0-0.1c0.1-0.1 0.1-0.1 0 0.1zm0.8-4.5q0.4-0.4 0.8-0.7-0.3 0.2-0.8 0.7zm4-3.7c-1.7 1.8-4 4.3-6.2 6.4 1.6-1.7 2.8-3 3.2-3.5q0.5-0.5 1-1 1.1-1 2-1.9zm-10-17.2l0.3 0.4q-0.1-0.2-0.3-0.4zm74.2 8.3q0.3 0 0.5 0.1-0.3 0-0.5-0.1zm-89.8 11.8c-0.1 0.2 2.5-0.4 5-1-0.1-0.2-0.1-0.4 0.2-0.6-2.1 0.6-3.5 1.3-5.2 1.6zm6-0.4l-0.3-0.1h-0.2c0.3 0 0.4 0.1 0.5 0.1zm0.2 0.1q-0.1-0.1-0.2-0.1zm-46.9 16l-0.5 0.1c-0.7-0.3-1-0.5-1.2-0.7-1.5 0.5-2.8 1.2-1.6 1.4 0.9-0.2 2.1-0.5 3.3-0.8zm0.4-0.1q-0.2 0-0.4 0.1z"/>
</svg>